<svg width="20" height="21" viewBox="0 0 20 21" fill="none" xmlns="http://www.w3.org/2000/svg">
<path d="M14.9792 4.2833C15.7575 4.2833 16.3879 3.65711 16.3879 2.87878V1.40734C16.3879 0.628302 15.7575 0 14.9792 0C14.2015 0 13.5732 0.628302 13.5732 1.40734V2.87878C13.5732 3.65711 14.2015 4.2833 14.9792 4.2833Z" fill="#8089A6"/>
<path d="M19.9796 2.43534H17.1473V3.15169C17.1473 4.33222 16.1872 5.2951 15.0039 5.2951C13.8191 5.2951 12.8619 4.33222 12.8619 3.15169V2.43534H7.14447V3.15169C7.14447 4.33222 6.18441 5.2951 5.00106 5.2951C3.81771 5.2951 2.85905 4.33151 2.85905 3.15098V2.43534L1.59539e-09 2.39941V20.2919H1.42918H18.5736L20 20.2877L19.9796 2.43534ZM18.5736 18.867H1.42918V7.43639H18.5736V18.867Z" fill="#8089A6"/>
<path d="M4.97844 4.2833C5.75677 4.2833 6.38578 3.65711 6.38578 2.87878V1.40734C6.38578 0.628302 5.75748 0 4.97844 0C4.20152 0 3.57251 0.628302 3.57251 1.40734V2.87878C3.57251 3.65711 4.20152 4.2833 4.97844 4.2833Z" fill="#8089A6"/>
<path d="M9.39989 8.9707H7.14941V10.9577H9.39989V8.9707Z" fill="#8089A6"/>
<path d="M5.87792 8.9707H3.62744V10.9577H5.87792V8.9707Z" fill="#8089A6"/>
<path d="M13.0428 8.9707H10.7896V10.9577H13.0428V8.9707Z" fill="#8089A6"/>
<path d="M16.416 8.9707H14.1655V10.9577H16.416V8.9707Z" fill="#8089A6"/>
<path d="M9.39989 12.2705H7.14941V14.2561H9.39989V12.2705Z" fill="#8089A6"/>
<path d="M13.0428 12.2705H10.7896V14.2561H13.0428V12.2705Z" fill="#8089A6"/>
<path d="M16.416 12.2705H14.1655V14.2561H16.416V12.2705Z" fill="#8089A6"/>
<path d="M9.39989 15.6357H7.14941V17.6214H9.39989V15.6357Z" fill="#8089A6"/>
<path d="M5.82158 12.2705H3.57251V14.2561H5.82158V12.2705Z" fill="#8089A6"/>
<path d="M5.82158 15.6357H3.57251V17.6214H5.82158V15.6357Z" fill="#8089A6"/>
<path d="M13.0428 15.6357H10.7896V17.6214H13.0428V15.6357Z" fill="#8089A6"/>
<path d="M16.416 15.6357H14.1655V17.6214H16.416V15.6357Z" fill="#8089A6"/>
</svg>
