<svg width="0" height="0" id="hidden">
  <symbol viewBox="0 0 20 21"  xmlns="http://www.w3.org/2000/svg" id="calendar">
 
    <path d="M14.98 4.283c.777 0 1.408-.626 1.408-1.404V1.407a1.407 1.407 0 1 0-2.815 0V2.88c0 .778.628 1.404 1.406 1.404z"></path>
    <path d="M19.98 2.435h-2.833v.717a2.144 2.144 0 0 1-4.285 0v-.717H7.144v.717c0 1.18-.96 2.143-2.143 2.143A2.145 2.145 0 0 1 2.86 3.151v-.716L0 2.4v17.893h18.574L20 20.288l-.02-17.853zm-1.406 16.432H1.429V7.437h17.145v11.43z" ></path>
    <path d="M4.978 4.283c.779 0 1.408-.626 1.408-1.404V1.407a1.405 1.405 0 1 0-2.813 0V2.88c0 .778.629 1.404 1.405 1.404zM9.4 8.97H7.15v1.988H9.4V8.97zm-3.522 0h-2.25v1.988h2.25V8.97zm7.165 0H10.79v1.988h2.253V8.97zm3.373 0h-2.25v1.988h2.25V8.97zM9.4 12.27H7.15v1.986H9.4V12.27zm3.643 0H10.79v1.986h2.253V12.27zm3.373 0h-2.25v1.986h2.25V12.27zM9.4 15.636H7.15v1.985H9.4v-1.985zM5.822 12.27h-2.25v1.986h2.25V12.27zm0 3.366h-2.25v1.985h2.25v-1.985zm7.221 0H10.79v1.985h2.253v-1.985zm3.373 0h-2.25v1.985h2.25v-1.985z"
      ></path>

  </symbol>
  <symbol viewBox="0 0 20 20"  xmlns="http://www.w3.org/2000/svg" id="handyman-tools">
    <path d="M3.961 7.732a3.87 3.87 0 0 0 1.177-.184l2.26 2.26 2.476-2.476-2.26-2.262a3.848 3.848 0 0 0-.937-3.884A3.803 3.803 0 0 0 3.971.066c-.57 0-1.143.129-1.656.374a.263.263 0 0 0-.073.424L4.62 3.243a.921.921 0 0 1 0 1.31.946.946 0 0 1-1.31 0L.93 2.175a.263.263 0 0 0-.424.073 3.84 3.84 0 0 0 .747 4.362 3.804 3.804 0 0 0 2.708 1.122zm12.079 4.4c-.403 0-.798.063-1.179.185l-2.5-2.5-2.477 2.476 2.5 2.501a3.851 3.851 0 0 0 .938 3.884 3.804 3.804 0 0 0 2.706 1.121c.571 0 1.144-.13 1.657-.374a.263.263 0 0 0 .073-.425l-2.378-2.379a.92.92 0 0 1 0-1.31c.35-.35.96-.35 1.31 0l2.379 2.378a.264.264 0 0 0 .424-.072 3.84 3.84 0 0 0-.746-4.363 3.803 3.803 0 0 0-2.707-1.122z"
     ></path>
    <path d="M15.022 6.493s.414.362.755.193c.386-.194 1.472.877 1.819 1.127l.008.003-.19.19a.637.637 0 0 0 .9.9l1.5-1.499a.637.637 0 0 0-.9-.9l-.25.249c-.207-.285-.551-.771-.508-.932.183-.705-1.254-2.37-1.254-2.37-3.57-3.57-5.954-3.488-7.088-3.098-.455.156-.371.256.102.339 3.441.6 3.868 2.63 3.285 3.413-.225.302.103.667.103.667l.123.122-5.811 5.81c.079.048.155.102.223.17l.977.976c.067.066.12.143.168.221l5.81-5.81.228.229zm-7.574 4.774a.605.605 0 0 0-.809-.03l-6.457 5.79a.508.508 0 0 0-.029.752l1.759 1.758a.508.508 0 0 0 .752-.026l5.79-6.46a.604.604 0 0 0-.029-.807l-.977-.977z"
     ></path>
  </symbol>
  <symbol viewBox="0 0 20 17" xmlns="http://www.w3.org/2000/svg" id="messages">
    <path d="M1.92 5.317c.253.182 1.015.72 2.288 1.616C5.48 7.828 6.455 8.518 7.132 9l.474.346c.242.178.443.321.602.431.16.11.354.232.58.368.228.136.442.238.643.306.2.068.387.102.558.102h.022c.171 0 .357-.034.558-.102.201-.068.415-.17.642-.306.227-.136.42-.259.58-.368.16-.11.361-.253.603-.43.242-.179.4-.294.474-.347l5.223-3.684c.544-.385.997-.85 1.362-1.394.365-.544.547-1.115.547-1.712a1.75 1.75 0 0 0-.53-1.28 1.712 1.712 0 0 0-1.256-.534H1.786C1.213.397.772.594.463.987.154 1.38 0 1.87 0 2.46c0 .476.205.992.614 1.547.409.555.844.992 1.306 1.31z"
     ></path>
    <path d="M18.884 6.53c-2.44 1.678-4.293 2.981-5.558 3.911a26.37 26.37 0 0 1-1.032.743 6.332 6.332 0 0 1-1.055.544c-.439.185-.848.277-1.228.277H9.99c-.38 0-.789-.092-1.228-.277a6.333 6.333 0 0 1-1.055-.544 26.45 26.45 0 0 1-1.032-.743C5.67 9.693 3.821 8.39 1.127 6.531A5.939 5.939 0 0 1 0 5.543v9c0 .5.175.926.525 1.282.35.355.77.532 1.26.532h16.43c.49 0 .91-.177 1.26-.532A1.76 1.76 0 0 0 20 14.544v-9a6.19 6.19 0 0 1-1.116.986z"
      ></path>
  </symbol>
  <symbol viewBox="0 0 18 19"  xmlns="http://www.w3.org/2000/svg" id="my profile">
    <path d="M9 9.596c2.229 0 4.036-2.148 4.036-4.798C13.036 1.123 11.229 0 9 0 6.771 0 4.964 1.123 4.964 4.798c0 2.65 1.807 4.798 4.036 4.798zm8.912 7.062L15.876 12a1.031 1.031 0 0 0-.46-.497l-3.16-1.671a.201.201 0 0 0-.217.018A4.956 4.956 0 0 1 9 10.9a4.956 4.956 0 0 1-3.039-1.05.201.201 0 0 0-.217-.018l-3.16 1.67a1.031 1.031 0 0 0-.46.498L.088 16.66c-.14.32-.112.688.077.983.189.294.508.47.853.47h15.963c.346 0 .665-.176.854-.47.188-.295.217-.663.077-.984z"
      ></path>
  </symbol>
  <symbol viewBox="0 0 20 21"  xmlns="http://www.w3.org/2000/svg" id="team-2">
    <path d="M3.179 4.01a1.972 1.972 0 1 0 0-3.945 1.972 1.972 0 0 0 0 3.945zM.978 10.92h.196v3.913c0 .538.44.978.978.978h2.053a.98.98 0 0 0 .978-.978v-.228a2.472 2.472 0 0 1-.293-1.141V8.345a2.44 2.44 0 0 1 1.467-2.233v-.39a.98.98 0 0 0-.978-.979H.978A.98.98 0 0 0 0 5.721v4.222a.97.97 0 0 0 .978.978zm15.86-6.91a1.972 1.972 0 1 0 0-3.945 1.972 1.972 0 0 0 0 3.945zm-3.195 1.696v.39A2.44 2.44 0 0 1 15.11 8.33v5.102c0 .407-.098.798-.293 1.14v.229c0 .538.44.978.978.978h2.054a.98.98 0 0 0 .978-.978v-3.912h.195A.98.98 0 0 0 20 9.911V5.706a.98.98 0 0 0-.978-.978h-4.4a.98.98 0 0 0-.979.978zm-7.27 2.64v5.118c0 .538.44.978.978.978h.375v4.613c0 .538.44.978.978.978h2.624a.98.98 0 0 0 .979-.978v-4.63h.374a.98.98 0 0 0 .978-.977V8.346a.98.98 0 0 0-.978-.978h-5.33a.97.97 0 0 0-.978.978zm3.635-1.793a2.266 2.266 0 1 0 0-4.531 2.266 2.266 0 0 0 0 4.53z"
     ></path>
  </symbol>
</svg>