<svg width="53" height="34" viewBox="0 0 53 34" fill="none" xmlns="http://www.w3.org/2000/svg">
<path d="M20.7135 16.6667L21.5547 16.1259L21.5329 16.092L21.5085 16.06L20.7135 16.6667ZM15.7552 13.2083L15.0736 12.4766L13.7897 13.6726L15.473 14.1677L15.7552 13.2083ZM21.8385 7.54167L22.5201 8.27339L22.8385 7.9768V7.54167H21.8385ZM21.8385 2H22.8385V0.999998H21.8385V2ZM3.08854 2V0.999998H2.08854V2H3.08854ZM3.08854 7.33333H2.08854V8.33333H3.08854V7.33333ZM14.2969 7.33333L14.976 8.06733L16.85 6.33333H14.2969V7.33333ZM7.04688 14.0417L6.36772 13.3077L5.78482 13.847L6.17813 14.5369L7.04688 14.0417ZM9.58854 18.5L8.7198 18.9953L9.22184 19.8759L10.0956 19.3619L9.58854 18.5ZM15.2552 19.125L14.5481 19.8321L14.5481 19.8321L15.2552 19.125ZM15.2552 25.8333L14.5481 25.1262V25.1262L15.2552 25.8333ZM8.58854 25.8333L7.88144 26.5404L8.58854 25.8333ZM7.42188 23.75L8.38895 23.4955L8.13398 22.5266L7.16558 22.7834L7.42188 23.75ZM1.92188 25.2083L1.66558 24.2417L0.680328 24.503L0.960351 25.4831L1.92188 25.2083ZM4.67188 29.75L5.3553 29.02L5.35503 29.0197L4.67188 29.75ZM11.9219 32.5417L11.9536 31.5422L11.9219 31.5412L11.8901 31.5422L11.9219 32.5417ZM19.1719 29.7917L19.8553 30.5217L19.1719 29.7917ZM22.3802 22.5417L21.381 22.5017L21.3807 22.5109L22.3802 22.5417ZM21.5085 16.06C20.1872 14.3286 18.3905 12.9411 16.0374 12.249L15.473 14.1677C17.3699 14.7256 18.8233 15.8381 19.9186 17.2733L21.5085 16.06ZM16.4368 13.9401L22.5201 8.27339L21.1569 6.80994L15.0736 12.4766L16.4368 13.9401ZM22.8385 7.54167V2H20.8385V7.54167H22.8385ZM21.8385 0.999998H3.08854V3H21.8385V0.999998ZM2.08854 2V7.33333H4.08854V2H2.08854ZM3.08854 8.33333H14.2969V6.33333H3.08854V8.33333ZM13.6177 6.59934L6.36772 13.3077L7.72603 14.7757L14.976 8.06733L13.6177 6.59934ZM6.17813 14.5369L8.7198 18.9953L10.4573 18.0047L7.91562 13.5464L6.17813 14.5369ZM10.0956 19.3619C10.6742 19.0215 11.2928 18.8333 11.9219 18.8333V16.8333C10.8843 16.8333 9.91952 17.1451 9.08152 17.6381L10.0956 19.3619ZM11.9219 18.8333C12.964 18.8333 13.856 19.14 14.5481 19.8321L15.9623 18.4179C14.8211 17.2767 13.3798 16.8333 11.9219 16.8333V18.8333ZM14.5481 19.8321C15.2589 20.5429 15.6302 21.5298 15.6302 22.5417H17.6302C17.6302 21.0535 17.0848 19.5404 15.9623 18.4179L14.5481 19.8321ZM15.6302 22.5417C15.6302 23.4818 15.2377 24.4366 14.5481 25.1262L15.9623 26.5404C17.0227 25.48 17.6302 24.0182 17.6302 22.5417H15.6302ZM14.5481 25.1262C13.8618 25.8125 12.9083 26.2083 11.9219 26.2083V28.2083C13.4354 28.2083 14.8986 27.6042 15.9623 26.5404L14.5481 25.1262ZM11.9219 26.2083C10.9354 26.2083 9.98192 25.8125 9.29565 25.1262L7.88144 26.5404C8.94516 27.6042 10.4083 28.2083 11.9219 28.2083V26.2083ZM9.29565 25.1262C8.85341 24.684 8.55831 24.1391 8.38895 23.4955L6.4548 24.0045C6.7021 24.9442 7.15701 25.816 7.88144 26.5404L9.29565 25.1262ZM7.16558 22.7834L1.66558 24.2417L2.17817 26.1749L7.67817 24.7166L7.16558 22.7834ZM0.960351 25.4831C1.50857 27.4018 2.56058 29.1443 3.98872 30.4803L5.35503 29.0197C4.19983 27.9391 3.33518 26.5148 2.8834 24.9336L0.960351 25.4831ZM3.98845 30.48C6.13104 32.4858 9.0518 33.6333 11.9536 33.5412L11.8901 31.5422C9.54195 31.6167 7.12938 30.6808 5.3553 29.02L3.98845 30.48ZM11.8901 33.5412C14.7815 33.633 17.7049 32.5348 19.8553 30.5217L18.4885 29.0616C16.7222 30.7152 14.3123 31.617 11.9536 31.5422L11.8901 33.5412ZM19.8553 30.5217C22.0188 28.4962 23.2887 25.5311 23.3797 22.5724L21.3807 22.5109C21.3051 24.9689 20.2416 27.4204 18.4885 29.0616L19.8553 30.5217ZM23.3794 22.5816C23.4718 20.2712 22.7783 18.0293 21.5547 16.1259L19.8724 17.2074C20.8988 18.8041 21.4553 20.6455 21.381 22.5017L23.3794 22.5816ZM31.3359 10L30.3369 9.95592L30.3351 9.99717L30.3367 10.0384L31.3359 10ZM32.0859 13.5833L31.1683 13.981L31.174 13.9937L32.0859 13.5833ZM33.6693 15.875L34.3299 16.6257L35.0816 15.9642L34.4191 15.2134L33.6693 15.875ZM31.2943 19.1667L30.3702 18.7843L30.3678 18.7903L31.2943 19.1667ZM33.8776 30.2917L34.5212 29.5263L34.5133 29.5197L33.8776 30.2917ZM48.1693 30.2917L47.5392 29.515L47.5291 29.5234L48.1693 30.2917ZM51.5026 23L52.5017 23.0428L52.5033 23.0042L52.502 22.9655L51.5026 23ZM50.7526 19.1667L51.6791 18.7903L51.6766 18.7843L50.7526 19.1667ZM48.3776 15.875L47.6278 15.2134L46.9653 15.9642L47.717 16.6257L48.3776 15.875ZM49.9193 13.5833L49.013 13.1604L49.0074 13.173L49.9193 13.5833ZM47.3776 3.25L46.7623 4.03831L46.7762 4.04911L46.7904 4.05942L47.3776 3.25ZM34.6693 3.25L35.252 4.06269L35.2652 4.05321L35.2781 4.04331L34.6693 3.25ZM38.3359 7.54167L38.9716 8.31359L38.9832 8.30409L38.9944 8.29424L38.3359 7.54167ZM41.0026 6.66666L41.0426 5.66746L41.0018 5.66583L40.961 5.66753L41.0026 6.66666ZM43.7109 7.54167L44.3694 6.78909L43.7109 7.54167ZM44.6693 10L43.6701 9.95837L43.6684 10L43.6701 10.0416L44.6693 10ZM43.7109 12.4583L43.0524 11.7058L43.7109 12.4583ZM38.3359 12.4583L38.9944 11.7058L38.9832 11.6959L38.9716 11.6864L38.3359 12.4583ZM44.2943 26.1667L44.982 26.8926L44.983 26.8917L44.2943 26.1667ZM37.7109 26.1667L37.0222 26.8917L37.032 26.9009L37.042 26.91L37.7109 26.1667ZM37.7109 19.8333L38.3799 20.5766L38.3899 20.5676L38.3997 20.5583L37.7109 19.8333ZM44.2943 19.8333L43.5872 20.5404L43.6058 20.559L43.6253 20.5766L44.2943 19.8333ZM30.3367 10.0384C30.381 11.1916 30.5598 12.5766 31.1684 13.9809L33.0035 13.1857C32.5287 12.0901 32.3742 10.975 32.3352 9.96157L30.3367 10.0384ZM31.174 13.9937C31.6117 14.9664 32.2754 15.8067 32.9194 16.5366L34.4191 15.2134C33.8131 14.5266 33.3101 13.8669 32.9979 13.173L31.174 13.9937ZM33.0086 15.1243C31.8553 16.1392 30.9303 17.4309 30.3703 18.7843L32.2183 19.549C32.6582 18.4858 33.3999 17.4441 34.3299 16.6257L33.0086 15.1243ZM30.3678 18.7903C29.7735 20.2531 29.5443 21.6738 29.5443 23H31.5443C31.5443 21.9095 31.7317 20.7469 32.2207 19.543L30.3678 18.7903ZM29.5443 23C29.5443 26.0662 30.8681 29.1087 33.2419 31.0636L34.5133 29.5197C32.6371 27.9746 31.5443 25.5171 31.5443 23H29.5443ZM33.234 31.057C35.2904 32.7863 38.2467 33.625 41.0026 33.625V31.625C38.5919 31.625 36.1314 30.8804 34.5212 29.5263L33.234 31.057ZM41.0026 33.625C43.6587 33.625 46.5779 32.9195 48.8095 31.0599L47.5291 29.5234C45.7607 30.9971 43.3465 31.625 41.0026 31.625V33.625ZM48.7993 31.0682C51.2862 29.0506 52.3679 26.1645 52.5017 23.0428L50.5035 22.9572C50.3873 25.6688 49.469 27.9494 47.5392 29.5151L48.7993 31.0682ZM52.502 22.9655C52.458 21.6889 52.2803 20.2702 51.6791 18.7903L49.8261 19.543C50.3083 20.7298 50.4639 21.8944 50.5032 23.0345L52.502 22.9655ZM51.6766 18.7843C51.1166 17.4309 50.1916 16.1392 49.0382 15.1243L47.717 16.6257C48.647 17.4441 49.3886 18.4858 49.8286 19.549L51.6766 18.7843ZM49.1274 16.5366C49.7919 15.7836 50.4012 14.9493 50.8312 13.9937L49.0074 13.173C48.6874 13.884 48.2133 14.5497 47.6278 15.2134L49.1274 16.5366ZM50.8255 14.0062C51.4872 12.5882 51.6693 11.1843 51.6693 10H49.6693C49.6693 10.9823 49.518 12.0784 49.0131 13.1604L50.8255 14.0062ZM51.6693 10C51.6693 7.05008 50.3778 4.19113 47.9648 2.44058L46.7904 4.05942C48.6275 5.3922 49.6693 7.61659 49.6693 10H51.6693ZM47.9929 2.46168C46.0485 0.944098 43.5096 0.374998 41.0026 0.374998V2.375C43.2456 2.375 45.2901 2.88923 46.7623 4.03831L47.9929 2.46168ZM41.0026 0.374998C38.6657 0.374998 36.0877 0.900924 34.0605 2.45669L35.2781 4.04331C36.8342 2.84908 38.9228 2.375 41.0026 2.375V0.374998ZM34.0866 2.4373C31.5704 4.24136 30.4719 6.89602 30.3369 9.95592L32.335 10.0441C32.45 7.43731 33.3515 5.4253 35.252 4.06269L34.0866 2.4373ZM38.3359 10C38.3359 9.18592 38.5689 8.64529 38.9716 8.31359L37.7002 6.76974C36.6863 7.60471 36.3359 8.81407 36.3359 10H38.3359ZM38.9944 8.29424C39.4122 7.92873 40.1419 7.7034 41.0442 7.6658L40.961 5.66753C39.8634 5.71327 38.593 5.98793 37.6774 6.78909L38.9944 8.29424ZM40.9626 7.66586C41.9102 7.70377 42.6371 7.9308 43.0524 8.29424L44.3694 6.78909C43.4515 5.98587 42.1784 5.7129 41.0426 5.66746L40.9626 7.66586ZM43.0524 8.29424C43.4531 8.64484 43.7015 9.2067 43.6701 9.95837L45.6684 10.0416C45.7204 8.7933 45.3021 7.60516 44.3694 6.78909L43.0524 8.29424ZM43.6701 10.0416C43.7015 10.7933 43.4531 11.3552 43.0524 11.7058L44.3694 13.2109C45.3021 12.3948 45.7204 11.2067 45.6684 9.95837L43.6701 10.0416ZM43.0524 11.7058C42.6405 12.0662 41.9198 12.2917 41.0026 12.2917V14.2917C42.1688 14.2917 43.448 14.0172 44.3694 13.2109L43.0524 11.7058ZM41.0026 12.2917C40.1323 12.2917 39.409 12.0685 38.9944 11.7058L37.6774 13.2109C38.5962 14.0149 39.8729 14.2917 41.0026 14.2917V12.2917ZM38.9716 11.6864C38.5689 11.3547 38.3359 10.8141 38.3359 10H36.3359C36.3359 11.1859 36.6863 12.3953 37.7002 13.2303L38.9716 11.6864ZM43.6065 25.4407C43.0586 25.9598 42.0896 26.2917 41.0026 26.2917V28.2917C42.4156 28.2917 43.9467 27.8735 44.982 26.8926L43.6065 25.4407ZM41.0026 26.2917C39.9322 26.2917 38.985 25.9679 38.3799 25.4234L37.042 26.91C38.1036 27.8654 39.573 28.2917 41.0026 28.2917V26.2917ZM38.3997 25.4417C37.8347 24.9049 37.5443 24.0478 37.5443 23H35.5443C35.5443 24.3688 35.9206 25.8451 37.0222 26.8917L38.3997 25.4417ZM37.5443 23C37.5443 21.8964 37.8412 21.0614 38.3799 20.5766L37.042 19.09C35.914 20.1052 35.5443 21.6036 35.5443 23H37.5443ZM38.3997 20.5583C38.9986 19.9894 39.933 19.6667 41.0026 19.6667V17.6667C39.5722 17.6667 38.09 18.0939 37.0222 19.1083L38.3997 20.5583ZM41.0026 19.6667C42.0892 19.6667 43.0445 19.9978 43.5872 20.5404L45.0014 19.1262C43.9607 18.0856 42.416 17.6667 41.0026 17.6667V19.6667ZM43.6253 20.5766C44.1792 21.0751 44.5026 21.9256 44.5026 23H46.5026C46.5026 21.5744 46.076 20.0915 44.9632 19.09L43.6253 20.5766ZM44.5026 23C44.5026 24.0194 44.1858 24.8904 43.6055 25.4417L44.983 26.8917C46.0694 25.8596 46.5026 24.3972 46.5026 23H44.5026Z" fill="#F0CC8E"/>
</svg>
