<svg width="50" height="50" viewBox="0 0 50 50" fill="none" xmlns="http://www.w3.org/2000/svg">
<path d="M27.3284 13.2813C27.3284 11.9975 26.284 10.9529 25 10.9529C23.716 10.9529 22.6716 11.9975 22.6716 13.2813C22.6716 14.565 23.716 15.6096 25 15.6096C26.284 15.6096 27.3284 14.565 27.3284 13.2813ZM25 14.0779C24.5606 14.0779 24.2032 13.7205 24.2032 13.2813C24.2032 12.842 24.5606 12.4846 25 12.4846C25.4393 12.4846 25.7968 12.842 25.7968 13.2813C25.7968 13.7205 25.4393 14.0779 25 14.0779Z" fill="#F0CC8E"/>
<path d="M31.2654 46.0783H35.1408V37.5154H31.2654V46.0783ZM32.7971 39.0471H33.6092V42.2029H32.7971V39.0471ZM32.7971 43.7346H33.6092V44.5467H32.7971V43.7346Z" fill="#F0CC8E"/>
<path d="M40.6096 37.5154H36.7342V46.0783H40.6096V37.5154ZM39.0779 44.5467H38.2658V42.9534H39.0779V44.5467ZM39.0779 41.4217H38.2658V39.0472H39.0779V41.4217Z" fill="#F0CC8E"/>
<path d="M9.39044 46.0783H13.2658V37.5154H9.39044V46.0783ZM10.9221 39.0471H11.7342V41.4216H10.9221V39.0471ZM10.9221 42.9533H11.7342V44.5466H10.9221V42.9533Z" fill="#F0CC8E"/>
<path d="M14.8592 46.0783H18.7346V37.5154H14.8592V46.0783ZM16.3907 39.0471H17.2028V41.4216H16.3907V39.0471ZM16.3907 42.9533H17.2028V44.5466H16.3907V42.9533Z" fill="#F0CC8E"/>
<path d="M20.3279 46.0783H24.2033V37.5154H20.3279V46.0783ZM21.8596 39.0471H22.6717V41.4216H21.8596V39.0471ZM21.8596 42.9533H22.6717V44.5466H21.8596V42.9533Z" fill="#F0CC8E"/>
<path d="M25.7968 46.0783H29.6722V37.5154H25.7968V46.0783ZM27.3284 39.0471H28.1405V39.8592H27.3284V39.0471ZM27.3284 41.3907H28.1405V44.5466H27.3284V41.3907Z" fill="#F0CC8E"/>
<path d="M9.39044 25.7658H13.2658V17.2029H9.39044V25.7658ZM10.9221 18.7346H11.7342V21.8904H10.9221V18.7346ZM10.9221 23.422H11.7342V24.2342H10.9221V23.422Z" fill="#F0CC8E"/>
<path d="M9.39044 35.9221H13.2658V27.3592H9.39044V35.9221ZM10.9221 28.8907H11.7342V29.7029H10.9221V28.8907ZM10.9221 31.2346H11.7342V34.3904H10.9221V31.2346Z" fill="#F0CC8E"/>
<path d="M14.8592 25.7658H18.7346V17.2029H14.8592V25.7658ZM16.3907 18.7346H17.2028V20.3279H16.3907V18.7346ZM16.3907 21.8596H17.2028V24.2342H16.3907V21.8596Z" fill="#F0CC8E"/>
<path d="M14.8592 35.9221H18.7346V27.3592H14.8592V35.9221ZM16.3907 28.8907H17.2028V29.7029H16.3907V28.8907ZM16.3907 31.2346H17.2028V34.3904H16.3907V31.2346Z" fill="#F0CC8E"/>
<path d="M20.3279 25.7658H24.2033V17.2029H20.3279V25.7658ZM21.8596 18.7346H22.6717V20.3279H21.8596V18.7346ZM21.8596 21.8596H22.6717V24.2342H21.8596V21.8596Z" fill="#F0CC8E"/>
<path d="M20.3279 35.9221H24.2033V27.3592H20.3279V35.9221ZM21.8596 28.8907H22.6717V32.0466H21.8596V28.8907ZM21.8596 33.5783H22.6717V34.3905H21.8596V33.5783Z" fill="#F0CC8E"/>
<path d="M25.7968 25.7658H29.6722V17.2029H25.7968V25.7658ZM27.3284 18.7346H28.1405V19.5468H27.3284V18.7346ZM27.3284 21.0783H28.1405V24.2342H27.3284V21.0783Z" fill="#F0CC8E"/>
<path d="M25.7968 35.9221H29.6722V27.3592H25.7968V35.9221ZM27.3284 28.8907H28.1405V30.484H27.3284V28.8907ZM27.3284 32.0158H28.1405V34.3904H27.3284V32.0158Z" fill="#F0CC8E"/>
<path d="M31.2654 25.7658H35.1408V17.2029H31.2654V25.7658ZM32.7971 18.7346H33.6092V21.8904H32.7971V18.7346ZM32.7971 23.422H33.6092V24.2342H32.7971V23.422Z" fill="#F0CC8E"/>
<path d="M31.2654 35.9221H35.1408V27.3592H31.2654V35.9221ZM32.7971 28.8907H33.6092V31.2653H32.7971V28.8907ZM32.7971 32.7971H33.6092V34.3904H32.7971V32.7971Z" fill="#F0CC8E"/>
<path d="M40.6096 17.2029H36.7342V25.7658H40.6096V17.2029ZM39.0779 24.2342H38.2658V23.422H39.0779V24.2342ZM39.0779 21.8903H38.2658V18.7345H39.0779V21.8903Z" fill="#F0CC8E"/>
<path d="M40.6096 27.3592H36.7342V35.9221H40.6096V27.3592ZM39.0779 34.3904H38.2658V31.2346H39.0779V34.3904ZM39.0779 29.7029H38.2658V28.8907H39.0779V29.7029Z" fill="#F0CC8E"/>
<path d="M45.2971 48.4529V13.2967H36.1625L25 6.1208L13.8375 13.2966H4.70293V48.4528H0V49.9845H50V48.4528H45.2971V48.4529ZM43.7654 42.2029H41.4062V43.7346H43.7653V48.4529H6.23457V43.7346H8.59375V42.2029H6.23457V14.8283H14.2874L25 7.9416L35.7126 14.8282H43.7654V42.2029Z" fill="#F0CC8E"/>
<path d="M13.2817 3.92198H11.7191V5.45362H13.2817V3.92198Z" fill="#F0CC8E"/>
<path d="M12.4999 7.04659H7.81241V8.57823H12.4999V7.04659Z" fill="#F0CC8E"/>
<path d="M19.5308 2.3587H16.4059V3.89034H19.5308V2.3587Z" fill="#F0CC8E"/>
<path d="M35.9373 2.3587H29.6872V3.89034H35.9373V2.3587Z" fill="#F0CC8E"/>
<path d="M38.2811 3.92198H35.9373V5.45362H38.2811V3.92198Z" fill="#F0CC8E"/>
<path d="M39.8433 7.04659H38.2808V8.57823H39.8433V7.04659Z" fill="#F0CC8E"/>
<path d="M3.90626 14.8592H2.32833V11.7033H5.46876V10.1717H3.21368L8.59376 3.81348V3.89073H11.7188V2.35909H9.82423L10.5114 1.54707H39.4886L42.82 5.48418H39.8438V7.01582H44.1159L44.8031 7.82793H42.9688V9.35957H46.0938V9.35313L46.7863 10.1717H44.5312V11.7033H47.6717V14.8592H46.0938V16.3907H49.2033V10.6569L40.1989 0.0154343H9.80108L0.796692 10.6569V16.3907H3.90626V14.8592Z" fill="#F0CC8E"/>
<path d="M7.03125 11.7033H13.4934L24.986 4.80762L35.7126 11.7033H42.9688V10.1717H36.1625L33.6839 8.57832H35.9375V7.04668H31.3014L25.014 3.00478L19.5312 6.29443V6.26543H15.625V7.79707H17.027L13.0691 10.1717H7.03125V11.7033Z" fill="#F0CC8E"/>
</svg>
