<svg width="53" height="49" viewBox="0 0 53 49" fill="none" xmlns="http://www.w3.org/2000/svg">
<path d="M26.5 0C17.8237 0 10.7656 6.52542 10.7656 14.5469C10.7656 14.9703 11.1358 15.3125 11.5938 15.3125C12.0517 15.3125 12.4219 14.9703 12.4219 14.5469C12.4219 7.36991 18.7372 1.53125 26.5 1.53125C34.2628 1.53125 40.5781 7.36991 40.5781 14.5469C40.5781 14.9703 40.9483 15.3125 41.4062 15.3125C41.8642 15.3125 42.2344 14.9703 42.2344 14.5469C42.2344 6.52542 35.1763 0 26.5 0Z" fill="#F0CC8E"/>
<path d="M47.2031 29.0938H5.79688C5.33892 29.0938 4.96875 29.436 4.96875 29.8594C4.96875 30.2828 5.33892 30.625 5.79688 30.625H47.2031C47.6611 30.625 48.0312 30.2828 48.0312 29.8594C48.0312 29.436 47.6611 29.0938 47.2031 29.0938Z" fill="#F0CC8E"/>
<path d="M47.2031 45.1719H5.79688C5.33892 45.1719 4.96875 45.5141 4.96875 45.9375C4.96875 46.3609 5.33892 46.7031 5.79688 46.7031H47.2031C47.6611 46.7031 48.0312 46.3609 48.0312 45.9375C48.0312 45.5141 47.6611 45.1719 47.2031 45.1719Z" fill="#F0CC8E"/>
<path d="M9.10938 29.0938C8.65142 29.0938 8.28125 29.436 8.28125 29.8594V45.9375C8.28125 46.3609 8.65142 46.7031 9.10938 46.7031C9.56733 46.7031 9.9375 46.3609 9.9375 45.9375V29.8594C9.9375 29.436 9.56733 29.0938 9.10938 29.0938Z" fill="#F0CC8E"/>
<path d="M14.0781 29.0938C13.6202 29.0938 13.25 29.436 13.25 29.8594V45.9375C13.25 46.3609 13.6202 46.7031 14.0781 46.7031C14.5361 46.7031 14.9062 46.3609 14.9062 45.9375V29.8594C14.9062 29.436 14.5361 29.0938 14.0781 29.0938Z" fill="#F0CC8E"/>
<path d="M19.0469 29.0938C18.5889 29.0938 18.2188 29.436 18.2188 29.8594V45.9375C18.2188 46.3609 18.5889 46.7031 19.0469 46.7031C19.5048 46.7031 19.875 46.3609 19.875 45.9375V29.8594C19.875 29.436 19.5048 29.0938 19.0469 29.0938Z" fill="#F0CC8E"/>
<path d="M24.0156 29.0938C23.5577 29.0938 23.1875 29.436 23.1875 29.8594V45.9375C23.1875 46.3609 23.5577 46.7031 24.0156 46.7031C24.4736 46.7031 24.8438 46.3609 24.8438 45.9375V29.8594C24.8438 29.436 24.4736 29.0938 24.0156 29.0938Z" fill="#F0CC8E"/>
<path d="M28.9844 29.0938C28.5264 29.0938 28.1562 29.436 28.1562 29.8594V45.9375C28.1562 46.3609 28.5264 46.7031 28.9844 46.7031C29.4423 46.7031 29.8125 46.3609 29.8125 45.9375V29.8594C29.8125 29.436 29.4423 29.0938 28.9844 29.0938Z" fill="#F0CC8E"/>
<path d="M33.9531 29.0938C33.4952 29.0938 33.125 29.436 33.125 29.8594V45.9375C33.125 46.3609 33.4952 46.7031 33.9531 46.7031C34.4111 46.7031 34.7812 46.3609 34.7812 45.9375V29.8594C34.7812 29.436 34.4111 29.0938 33.9531 29.0938Z" fill="#F0CC8E"/>
<path d="M38.9219 29.0938C38.4639 29.0938 38.0938 29.436 38.0938 29.8594V45.9375C38.0938 46.3609 38.4639 46.7031 38.9219 46.7031C39.3798 46.7031 39.75 46.3609 39.75 45.9375V29.8594C39.75 29.436 39.3798 29.0938 38.9219 29.0938Z" fill="#F0CC8E"/>
<path d="M43.8906 29.0938C43.4327 29.0938 43.0625 29.436 43.0625 29.8594V45.9375C43.0625 46.3609 43.4327 46.7031 43.8906 46.7031C44.3486 46.7031 44.7188 46.3609 44.7188 45.9375V29.8594C44.7188 29.436 44.3486 29.0938 43.8906 29.0938Z" fill="#F0CC8E"/>
<path d="M10.7656 47.4688C10.3085 47.4688 9.9375 47.1257 9.9375 46.7031C9.9375 46.2797 9.56733 45.9375 9.10938 45.9375C8.65142 45.9375 8.28125 46.2797 8.28125 46.7031C8.28125 47.9695 9.39591 49 10.7656 49C11.2236 49 11.5938 48.6578 11.5938 48.2344C11.5938 47.811 11.2236 47.4688 10.7656 47.4688Z" fill="#F0CC8E"/>
<path d="M9.10938 45.1719C8.65142 45.1719 8.28125 45.5141 8.28125 45.9375V46.7031C8.28125 47.1265 8.65142 47.4688 9.10938 47.4688C9.56733 47.4688 9.9375 47.1265 9.9375 46.7031V45.9375C9.9375 45.5141 9.56733 45.1719 9.10938 45.1719Z" fill="#F0CC8E"/>
<path d="M43.8906 45.9375C43.4327 45.9375 43.0625 46.2797 43.0625 46.7031C43.0625 47.1257 42.6915 47.4688 42.2344 47.4688C41.7764 47.4688 41.4062 47.811 41.4062 48.2344C41.4062 48.6578 41.7764 49 42.2344 49C43.6041 49 44.7188 47.9695 44.7188 46.7031C44.7188 46.2797 44.3486 45.9375 43.8906 45.9375Z" fill="#F0CC8E"/>
<path d="M43.8906 45.1719C43.4327 45.1719 43.0625 45.5141 43.0625 45.9375V46.7031C43.0625 47.1265 43.4327 47.4688 43.8906 47.4688C44.3486 47.4688 44.7188 47.1265 44.7188 46.7031V45.9375C44.7188 45.5141 44.3486 45.1719 43.8906 45.1719Z" fill="#F0CC8E"/>
<path d="M42.2344 47.4688H10.7656C10.3077 47.4688 9.9375 47.811 9.9375 48.2344C9.9375 48.6578 10.3077 49 10.7656 49H42.2344C42.6923 49 43.0625 48.6578 43.0625 48.2344C43.0625 47.811 42.6923 47.4688 42.2344 47.4688Z" fill="#F0CC8E"/>
<path d="M11.5938 13.7812C11.1358 13.7812 10.7656 14.1235 10.7656 14.5469V29.8594C10.7656 30.2828 11.1358 30.625 11.5938 30.625C12.0517 30.625 12.4219 30.2828 12.4219 29.8594V14.5469C12.4219 14.1235 12.0517 13.7812 11.5938 13.7812Z" fill="#F0CC8E"/>
<path d="M41.4062 13.7812C40.9483 13.7812 40.5781 14.1235 40.5781 14.5469V29.8594C40.5781 30.2828 40.9483 30.625 41.4062 30.625C41.8642 30.625 42.2344 30.2828 42.2344 29.8594V14.5469C42.2344 14.1235 41.8642 13.7812 41.4062 13.7812Z" fill="#F0CC8E"/>
<path d="M26.5 0C26.042 0 25.6719 0.342234 25.6719 0.765625V10.7188C25.6719 11.1421 26.042 11.4844 26.5 11.4844C26.958 11.4844 27.3281 11.1421 27.3281 10.7188V0.765625C27.3281 0.342234 26.958 0 26.5 0Z" fill="#F0CC8E"/>
<path d="M26.5 9.95312C26.042 9.95312 25.6719 10.2954 25.6719 10.7188C25.6719 17.8957 19.3566 23.7344 11.5938 23.7344C11.1358 23.7344 10.7656 24.0766 10.7656 24.5C10.7656 24.9234 11.1358 25.2656 11.5938 25.2656C20.27 25.2656 27.3281 18.7402 27.3281 10.7188C27.3281 10.2954 26.958 9.95312 26.5 9.95312Z" fill="#F0CC8E"/>
<path d="M41.4062 23.7344C33.6434 23.7344 27.3281 17.8957 27.3281 10.7188C27.3281 10.2954 26.958 9.95312 26.5 9.95312C26.042 9.95312 25.6719 10.2954 25.6719 10.7188C25.6719 18.7402 32.73 25.2656 41.4062 25.2656C41.8642 25.2656 42.2344 24.9234 42.2344 24.5C42.2344 24.0766 41.8642 23.7344 41.4062 23.7344Z" fill="#F0CC8E"/>
<path d="M36.4375 22.9504C35.9795 22.9504 35.6094 23.2926 35.6094 23.716V29.8594C35.6094 30.2828 35.9795 30.625 36.4375 30.625C36.8955 30.625 37.2656 30.2828 37.2656 29.8594V23.716C37.2656 23.2926 36.8955 22.9504 36.4375 22.9504Z" fill="#F0CC8E"/>
<path d="M16.5625 22.9504C16.1045 22.9504 15.7344 23.2926 15.7344 23.716V29.8594C15.7344 30.2828 16.1045 30.625 16.5625 30.625C17.0205 30.625 17.3906 30.2828 17.3906 29.8594V23.716C17.3906 23.2926 17.0205 22.9504 16.5625 22.9504Z" fill="#F0CC8E"/>
<path d="M5.79688 22.9688C4.42716 22.9688 3.3125 23.9993 3.3125 25.2656C3.3125 26.532 4.42716 27.5625 5.79688 27.5625C7.16659 27.5625 8.28125 26.532 8.28125 25.2656C8.28125 23.9993 7.16659 22.9688 5.79688 22.9688ZM5.79688 26.0312C5.33975 26.0312 4.96875 25.6883 4.96875 25.2656C4.96875 24.843 5.33975 24.5 5.79688 24.5C6.254 24.5 6.625 24.843 6.625 25.2656C6.625 25.6883 6.254 26.0312 5.79688 26.0312Z" fill="#F0CC8E"/>
<path d="M47.2031 22.9688C45.8334 22.9688 44.7188 23.9993 44.7188 25.2656C44.7188 26.532 45.8334 27.5625 47.2031 27.5625C48.5728 27.5625 49.6875 26.532 49.6875 25.2656C49.6875 23.9993 48.5728 22.9688 47.2031 22.9688ZM47.2031 26.0312C46.746 26.0312 46.375 25.6883 46.375 25.2656C46.375 24.843 46.746 24.5 47.2031 24.5C47.6602 24.5 48.0312 24.843 48.0312 25.2656C48.0312 25.6883 47.6602 26.0312 47.2031 26.0312Z" fill="#F0CC8E"/>
<path d="M5.79688 26.0312C5.33892 26.0312 4.96875 26.3735 4.96875 26.7969V45.9375C4.96875 46.3609 5.33892 46.7031 5.79688 46.7031C6.25483 46.7031 6.625 46.3609 6.625 45.9375V26.7969C6.625 26.3735 6.25483 26.0312 5.79688 26.0312Z" fill="#F0CC8E"/>
<path d="M47.2031 26.0312C46.7452 26.0312 46.375 26.3735 46.375 26.7969V45.9375C46.375 46.3609 46.7452 46.7031 47.2031 46.7031C47.6611 46.7031 48.0312 46.3609 48.0312 45.9375V26.7969C48.0312 26.3735 47.6611 26.0312 47.2031 26.0312Z" fill="#F0CC8E"/>
</svg>
