<svg width="0" height="0" class="hidden">
  <symbol viewBox="0 0 53 34" fill="none" xmlns="http://www.w3.org/2000/svg" id="38">
    <path d="M20.713 16.667l.842-.541-.022-.034-.024-.032-.796.607zm-4.958-3.459l-.681-.731-1.284 1.196 1.683.495.282-.96zm6.083-5.666l.682.731.319-.296v-.435h-1zm0-5.542h1V1h-1v1zM3.088 2V1h-1v1h1zm0 5.333h-1v1h1v-1zm11.209 0l.679.734 1.874-1.734h-2.553v1zm-7.25 6.709l-.68-.734-.582.539.393.69.869-.495zM9.589 18.5l-.87.495.503.88.874-.513-.507-.862zm5.666.625l-.707.707.707-.707zm0 6.708l-.707-.707.707.707zm-6.666 0l-.708.707.708-.707zM7.422 23.75l.967-.255-.255-.968-.968.256.256.967zm-5.5 1.458l-.256-.966-.986.261.28.98.962-.275zm2.75 4.542l.683-.73-.683.73zm7.25 2.792l.032-1h-.064l.032 1zm7.25-2.75l.683.73-.683-.73zm3.208-7.25l-.999-.04v.009l1 .03zm-.871-6.482c-1.322-1.731-3.119-3.119-5.472-3.811l-.564 1.919c1.897.558 3.35 1.67 4.446 3.105l1.59-1.213zm-5.072-2.12l6.083-5.667-1.363-1.463-6.083 5.667 1.363 1.463zm6.401-6.398V2h-2v5.542h2zm-1-6.542H3.088v2h18.75V1zM2.088 2v5.333h2V2h-2zm1 6.333h11.209v-2H3.089v2zM13.619 6.6l-7.25 6.709 1.358 1.468 7.25-6.709L13.618 6.6zm-7.44 7.938l2.542 4.458 1.737-.99-2.541-4.459-1.738.99zm3.918 4.825c.578-.34 1.197-.529 1.826-.529v-2c-1.038 0-2.002.312-2.84.805l1.014 1.724zm1.826-.529c1.042 0 1.934.307 2.626 1l1.414-1.415c-1.14-1.141-2.582-1.585-4.04-1.585v2zm2.626 1c.71.71 1.082 1.697 1.082 2.709h2c0-1.489-.545-3.002-1.668-4.124l-1.414 1.414zm1.082 2.709c0 .94-.392 1.895-1.082 2.584l1.414 1.414a5.708 5.708 0 0 0 1.668-3.998h-2zm-1.082 2.584a3.731 3.731 0 0 1-2.626 1.082v2a5.731 5.731 0 0 0 4.04-1.668l-1.414-1.414zm-2.626 1.082c-.987 0-1.94-.395-2.626-1.082L7.88 26.54a5.731 5.731 0 0 0 4.04 1.668v-2zm-2.626-1.082c-.443-.442-.738-.987-.907-1.63l-1.934.509c.247.94.702 1.811 1.426 2.535l1.415-1.414zm-2.13-2.343l-5.5 1.459.512 1.933 5.5-1.458-.512-1.934zm-6.206 2.7A10.99 10.99 0 0 0 3.99 30.48l1.366-1.46a8.99 8.99 0 0 1-2.472-4.086l-1.923.55zm3.028 4.997c2.143 2.006 5.064 3.153 7.966 3.061l-.064-1.999c-2.348.075-4.76-.861-6.535-2.522l-1.367 1.46zm7.902 3.061c2.891.092 5.815-1.006 7.965-3.02l-1.367-1.46c-1.766 1.654-4.176 2.556-6.534 2.481l-.064 2zm7.965-3.02c2.164-2.025 3.434-4.99 3.525-7.949l-2-.061c-.075 2.458-1.138 4.91-2.892 6.55l1.367 1.46zm3.524-7.94c.093-2.31-.6-4.552-1.824-6.455l-1.683 1.081c1.027 1.597 1.583 3.438 1.509 5.295l1.998.08zM31.336 10l-1-.044v.082l1-.038zm.75 3.583l-.918.398.006.013.912-.41zm1.583 2.292l.66.75.753-.66-.663-.752-.75.662zm-2.375 3.292l-.924-.383-.002.006.926.377zm2.584 11.125l.643-.766-.008-.006-.635.772zm14.291 0l-.63-.777-.01.008.64.769zM51.503 23l.999.043.001-.039-.001-.039-1 .035zm-.75-3.833l.926-.377-.002-.006-.924.383zm-2.375-3.292l-.75-.662-.663.751.752.662.66-.751zm1.541-2.292l-.906-.423-.006.013.912.41zM47.378 3.25l-.616.788.014.011.014.01.588-.809zm-12.709 0l.583.813.013-.01.013-.01-.609-.793zm3.667 4.292l.636.772.011-.01.011-.01-.658-.752zm2.667-.875l.04-1-.041-.001-.041.002.042.999zm2.708.875l.658-.753-.658.753zM44.669 10l-.999-.042-.002.042.002.042 1-.042zm-.958 2.458l-.659-.752.659.752zm-5.375 0l.658-.752-.01-.01-.012-.01-.636.772zm5.958 13.709l.688.726.001-.001-.689-.725zm-6.583 0l-.689.725.01.009.01.009.669-.743zm0-6.334l.669.744.01-.01.01-.009-.69-.725zm6.583 0l-.707.707.019.019.02.018.668-.744zm-13.957-9.795c.044 1.154.223 2.539.831 3.943l1.836-.795c-.475-1.096-.63-2.211-.669-3.224l-1.998.076zm.837 3.956c.438.972 1.101 1.813 1.745 2.543l1.5-1.324c-.606-.686-1.109-1.346-1.421-2.04l-1.824.82zm1.835 1.13a10.116 10.116 0 0 0-2.639 3.66l1.848.765a8.117 8.117 0 0 1 2.112-2.923l-1.321-1.502zm-2.641 3.666a11.095 11.095 0 0 0-.824 4.21h2a9.1 9.1 0 0 1 .677-3.457l-1.853-.753zM29.544 23c0 3.066 1.324 6.109 3.698 8.064l1.271-1.544c-1.876-1.545-2.969-4.003-2.969-6.52h-2zm3.69 8.057c2.056 1.73 5.013 2.568 7.769 2.568v-2c-2.411 0-4.872-.745-6.482-2.099l-1.287 1.531zm7.769 2.568c2.656 0 5.575-.706 7.806-2.565l-1.28-1.537c-1.768 1.474-4.183 2.102-6.526 2.102v2zm7.796-2.557c2.487-2.017 3.569-4.904 3.703-8.025l-1.998-.086c-.117 2.712-1.035 4.992-2.965 6.558l1.26 1.553zm3.703-8.103c-.044-1.276-.222-2.695-.823-4.175l-1.853.753c.482 1.187.638 2.351.677 3.492l1.999-.07zm-.825-4.18a10.115 10.115 0 0 0-2.639-3.66l-1.321 1.5a8.118 8.118 0 0 1 2.112 2.924l1.848-.765zm-2.55-2.248c.665-.753 1.274-1.588 1.704-2.543l-1.824-.821c-.32.711-.794 1.377-1.38 2.04l1.5 1.324zm1.698-2.53c.662-1.419.844-2.823.844-4.007h-2c0 .982-.151 2.078-.656 3.16l1.813.846zM51.67 10c0-2.95-1.291-5.809-3.704-7.56L46.79 4.06c1.837 1.332 2.88 3.557 2.88 5.94h2zm-3.676-7.538C46.048.944 43.51.375 41.003.375v2c2.243 0 4.287.514 5.76 1.663l1.23-1.576zM41.003.375c-2.337 0-4.915.526-6.943 2.082l1.218 1.586c1.556-1.194 3.645-1.668 5.725-1.668v-2zm-6.916 2.062c-2.517 1.804-3.615 4.459-3.75 7.519l1.998.088c.115-2.607 1.017-4.619 2.917-5.981l-1.165-1.626zM38.336 10c0-.814.233-1.355.636-1.686L37.7 6.77c-1.014.835-1.364 2.044-1.364 3.23h2zm.658-1.706c.418-.365 1.148-.59 2.05-.628l-.083-1.998c-1.098.045-2.368.32-3.284 1.121l1.317 1.505zm1.969-.628c.947.038 1.674.265 2.09.628l1.316-1.505c-.917-.803-2.19-1.076-3.326-1.122l-.08 1.999zm2.09.628c.4.35.649.913.617 1.664l1.998.084c.052-1.249-.366-2.437-1.299-3.253l-1.317 1.505zm.617 1.748c.032.751-.217 1.313-.618 1.664l1.317 1.505c.933-.816 1.351-2.004 1.3-3.253l-1.999.084zm-.618 1.664c-.411.36-1.132.586-2.05.586v2c1.167 0 2.446-.275 3.367-1.081l-1.317-1.505zm-2.05.586c-.87 0-1.593-.223-2.008-.586l-1.317 1.505c.92.804 2.196 1.08 3.326 1.08v-2zm-2.03-.606c-.403-.331-.636-.872-.636-1.686h-2c0 1.186.35 2.395 1.364 3.23l1.272-1.544zm4.634 13.755c-.547.519-1.516.85-2.603.85v2c1.413 0 2.944-.418 3.979-1.398l-1.376-1.452zm-2.603.85c-1.07 0-2.018-.323-2.623-.868l-1.338 1.487c1.062.955 2.531 1.382 3.96 1.382v-2zm-2.603-.85c-.565-.536-.856-1.393-.856-2.441h-2c0 1.369.377 2.845 1.478 3.892l1.378-1.45zM37.544 23c0-1.104.297-1.939.836-2.423l-1.338-1.487c-1.128 1.015-1.498 2.514-1.498 3.91h2zm.856-2.442c.599-.569 1.533-.891 2.603-.891v-2c-1.43 0-2.913.427-3.98 1.441l1.377 1.45zm2.603-.891c1.086 0 2.041.33 2.584.873l1.414-1.414c-1.04-1.04-2.585-1.46-3.998-1.46v2zm2.622.91c.554.498.878 1.349.878 2.423h2c0-1.426-.427-2.909-1.54-3.91l-1.338 1.487zM44.503 23c0 1.02-.317 1.89-.898 2.442l1.378 1.45c1.086-1.032 1.52-2.495 1.52-3.892h-2z"
      fill="#F0CC8E"></path>
  </symbol>
  <symbol viewBox="0 0 50 50" fill="none" xmlns="http://www.w3.org/2000/svg" id="apartments">
    <path d="M27.328 13.281A2.331 2.331 0 0 0 25 10.953a2.331 2.331 0 0 0-2.328 2.328A2.331 2.331 0 0 0 25 15.61a2.331 2.331 0 0 0 2.328-2.329zM25 14.078a.798.798 0 0 1 0-1.593.798.798 0 0 1 0 1.593zm6.265 32h3.876v-8.563h-3.876v8.563zm1.532-7.03h.812v3.155h-.812v-3.156zm0 4.687h.812v.812h-.812v-.812zm7.813-6.22h-3.876v8.563h3.876v-8.563zm-1.532 7.032h-.812v-1.594h.812v1.594zm0-3.125h-.812v-2.375h.812v2.375zM9.39 46.078h3.876v-8.563H9.39v8.563zm1.532-7.03h.812v2.374h-.812v-2.375zm0 3.905h.812v1.594h-.812v-1.594zm3.938 3.125h3.875v-8.563h-3.876v8.563zm1.53-7.03h.813v2.374h-.812v-2.375zm0 3.905h.813v1.594h-.812v-1.594zm3.938 3.125h3.875v-8.563h-3.875v8.563zm1.532-7.03h.812v2.374h-.812v-2.375zm0 3.905h.812v1.594h-.812v-1.594zm3.937 3.125h3.875v-8.563h-3.875v8.563zm1.531-7.03h.813v.811h-.813v-.812zm0 2.343h.813v3.156h-.813V41.39zM9.39 25.766h3.876v-8.563H9.39v8.563zm1.532-7.031h.812v3.155h-.812v-3.155zm0 4.687h.812v.812h-.812v-.812zm-1.532 12.5h3.876V27.36H9.39v8.563zm1.532-7.031h.812v.812h-.812v-.812zm0 2.344h.812v3.155h-.812v-3.155zm3.938-5.469h3.875v-8.563h-3.876v8.563zm1.53-7.031h.813v1.593h-.812v-1.593zm0 3.125h.813v2.374h-.812V21.86zm-1.53 14.062h3.875V27.36h-3.876v8.563zm1.53-7.031h.813v.812h-.812v-.812zm0 2.344h.813v3.155h-.812v-3.155zm3.938-5.469h3.875v-8.563h-3.875v8.563zm1.532-7.031h.812v1.593h-.812v-1.593zm0 3.125h.812v2.374h-.812V21.86zm-1.532 14.062h3.875V27.36h-3.875v8.563zm1.532-7.031h.812v3.156h-.812V28.89zm0 4.687h.812v.813h-.812v-.813zm3.937-7.812h3.875v-8.563h-3.875v8.563zm1.531-7.031h.813v.812h-.813v-.812zm0 2.343h.813v3.156h-.813v-3.156zm-1.531 14.844h3.875V27.36h-3.875v8.563zm1.531-7.031h.813v1.593h-.813v-1.593zm0 3.125h.813v2.374h-.813v-2.374zm3.937-6.25h3.876v-8.563h-3.876v8.563zm1.532-7.031h.812v3.155h-.812v-3.155zm0 4.687h.812v.812h-.812v-.812zm-1.532 12.5h3.876V27.36h-3.876v8.563zm1.532-7.031h.812v2.374h-.812v-2.374zm0 3.906h.812v1.593h-.812v-1.593zm7.813-15.594h-3.876v8.563h3.876v-8.563zm-1.532 7.031h-.812v-.812h.812v.812zm0-2.344h-.812v-3.155h.812v3.155zm1.532 5.47h-3.876v8.562h3.876V27.36zm-1.532 7.03h-.812v-3.155h.812v3.155zm0-4.687h-.812v-.812h.812v.812z"
      fill="#F0CC8E"></path>
    <path d="M45.297 48.453V13.297h-9.134L25 6.12l-11.162 7.176H4.703v35.156H0v1.531h50v-1.531h-4.703zm-1.532-6.25h-2.359v1.532h2.36v4.718H6.234v-4.718h2.359v-1.532h-2.36V14.828h8.053L25 7.942l10.713 6.886h8.052v27.375zM13.282 3.922h-1.563v1.532h1.563V3.922zM12.5 7.047H7.812v1.531H12.5V7.047zm7.03-4.688h-3.124V3.89h3.125V2.36zm16.407 0h-6.25V3.89h6.25V2.36zm2.344 1.563h-2.344v1.532h2.344V3.922zm1.562 3.125h-1.562v1.531h1.562V7.047z"
      fill="#F0CC8E"></path>
    <path d="M3.906 14.86H2.328v-3.157h3.14v-1.531H3.215l5.38-6.359v.078h3.125V2.359H9.824l.687-.812H39.49l3.331 3.937h-2.976v1.532h4.272l.687.812H42.97V9.36h3.125v-.007l.692.819h-2.255v1.531h3.14v3.156h-1.577v1.532h3.11v-5.734L40.198.015H9.8L.797 10.657v5.734h3.11v-1.532z"
      fill="#F0CC8E"></path>
    <path d="M7.031 11.703h6.462l11.493-6.895 10.727 6.895h7.256v-1.531h-6.806l-2.48-1.594h2.255V7.047H31.3l-6.287-4.042-5.483 3.29v-.03h-3.906v1.532h1.402l-3.958 2.375H7.031v1.531z" fill="#F0CC8E"></path>
  </symbol>
  <symbol viewBox="0 0 53 49" fill="none" xmlns="http://www.w3.org/2000/svg" id="balcony">
    <path d="M26.5 0c-8.676 0-15.734 6.525-15.734 14.547 0 .423.37.765.828.765.458 0 .828-.342.828-.765C12.422 7.37 18.737 1.53 26.5 1.53c7.763 0 14.078 5.839 14.078 13.016 0 .423.37.765.828.765.458 0 .828-.342.828-.765C42.234 6.525 35.176 0 26.5 0zm20.703 29.094H5.797c-.458 0-.828.342-.828.765 0 .424.37.766.828.766h41.406c.458 0 .828-.342.828-.766 0-.423-.37-.765-.828-.765zm0 16.078H5.797c-.458 0-.828.342-.828.766 0 .423.37.765.828.765h41.406c.458 0 .828-.342.828-.766 0-.423-.37-.765-.828-.765z"
      fill="#F0CC8E"></path>
    <path d="M9.11 29.094c-.459 0-.829.342-.829.765v16.078c0 .424.37.766.828.766.458 0 .829-.342.829-.766V29.86c0-.423-.37-.765-.829-.765zm4.968 0c-.458 0-.828.342-.828.765v16.078c0 .424.37.766.828.766.458 0 .828-.342.828-.766V29.86c0-.423-.37-.765-.828-.765zm4.969 0c-.458 0-.828.342-.828.765v16.078c0 .424.37.766.828.766.458 0 .828-.342.828-.766V29.86c0-.423-.37-.765-.828-.765zm4.969 0c-.458 0-.828.342-.828.765v16.078c0 .424.37.766.828.766.458 0 .828-.342.828-.766V29.86c0-.423-.37-.765-.828-.765zm4.968 0c-.458 0-.828.342-.828.765v16.078c0 .424.37.766.828.766.458 0 .828-.342.828-.766V29.86c0-.423-.37-.765-.828-.765zm4.969 0c-.458 0-.828.342-.828.765v16.078c0 .424.37.766.828.766.458 0 .828-.342.828-.766V29.86c0-.423-.37-.765-.828-.765zm4.969 0c-.458 0-.828.342-.828.765v16.078c0 .424.37.766.828.766.458 0 .828-.342.828-.766V29.86c0-.423-.37-.765-.828-.765zm4.968 0c-.457 0-.828.342-.828.765v16.078c0 .424.37.766.829.766.458 0 .828-.342.828-.766V29.86c0-.423-.37-.765-.828-.765z"
      fill="#F0CC8E"></path>
    <path d="M10.766 47.469c-.457 0-.829-.343-.829-.766s-.37-.766-.828-.766c-.458 0-.828.343-.828.766C8.281 47.97 9.396 49 10.766 49c.458 0 .828-.342.828-.766 0-.423-.37-.765-.828-.765z" fill="#F0CC8E"></path>
    <path d="M9.11 45.172c-.459 0-.829.342-.829.766v.765c0 .423.37.766.828.766.458 0 .829-.343.829-.766v-.766c0-.423-.37-.765-.829-.765zm34.78.766c-.457 0-.828.342-.828.765s-.37.766-.828.766c-.458 0-.828.342-.828.765 0 .424.37.766.828.766 1.37 0 2.485-1.03 2.485-2.297 0-.423-.37-.766-.828-.766z"
      fill="#F0CC8E"></path>
    <path d="M43.89 45.172c-.457 0-.828.342-.828.766v.765c0 .423.37.766.829.766.458 0 .828-.343.828-.766v-.766c0-.423-.37-.765-.828-.765zm-1.656 2.297H10.766c-.458 0-.829.342-.829.765 0 .424.37.766.829.766h31.468c.458 0 .828-.342.828-.766 0-.423-.37-.765-.828-.765zm-30.64-33.688c-.458 0-.828.342-.828.766v15.312c0 .424.37.766.828.766.458 0 .828-.342.828-.766V14.547c0-.424-.37-.766-.828-.766zm29.812 0c-.458 0-.828.342-.828.766v15.312c0 .424.37.766.828.766.458 0 .828-.342.828-.766V14.547c0-.424-.37-.766-.828-.766zM26.5 0c-.458 0-.828.342-.828.766v9.953c0 .423.37.765.828.765.458 0 .828-.342.828-.765V.766c0-.424-.37-.766-.828-.766z"
      fill="#F0CC8E"></path>
    <path d="M26.5 9.953c-.458 0-.828.342-.828.766 0 7.177-6.315 13.015-14.078 13.015-.458 0-.828.343-.828.766s.37.766.828.766c8.676 0 15.734-6.526 15.734-14.547 0-.424-.37-.766-.828-.766z" fill="#F0CC8E"></path>
    <path d="M41.406 23.734c-7.763 0-14.078-5.838-14.078-13.015 0-.424-.37-.766-.828-.766-.458 0-.828.342-.828.766 0 8.021 7.058 14.547 15.734 14.547.458 0 .828-.343.828-.766s-.37-.766-.828-.766z" fill="#F0CC8E"></path>
    <path d="M36.438 22.95c-.459 0-.829.343-.829.766v6.143c0 .424.37.766.828.766.459 0 .829-.342.829-.766v-6.143c0-.423-.37-.766-.828-.766zm-19.875 0c-.458 0-.829.343-.829.766v6.143c0 .424.37.766.829.766.457 0 .828-.342.828-.766v-6.143c0-.423-.37-.766-.828-.766zm-10.766.019c-1.37 0-2.484 1.03-2.484 2.297 0 1.266 1.114 2.297 2.484 2.297 1.37 0 2.484-1.031 2.484-2.297 0-1.267-1.114-2.297-2.484-2.297zm0 3.062c-.457 0-.828-.343-.828-.765 0-.423.37-.766.828-.766.457 0 .828.343.828.766 0 .422-.371.765-.828.765zm41.406-3.062c-1.37 0-2.484 1.03-2.484 2.297 0 1.266 1.114 2.297 2.484 2.297 1.37 0 2.484-1.031 2.484-2.297 0-1.267-1.114-2.297-2.484-2.297zm0 3.062c-.457 0-.828-.343-.828-.765 0-.423.371-.766.828-.766.457 0 .828.343.828.766 0 .422-.37.765-.828.765z"
      fill="#F0CC8E"></path>
    <path d="M5.797 26.031c-.458 0-.828.343-.828.766v19.14c0 .424.37.766.828.766.458 0 .828-.342.828-.766v-19.14c0-.424-.37-.766-.828-.766zm41.406 0c-.458 0-.828.343-.828.766v19.14c0 .424.37.766.828.766.458 0 .828-.342.828-.766v-19.14c0-.424-.37-.766-.828-.766z"
      fill="#F0CC8E"></path>
  </symbol>
  <symbol viewBox="0 0 50 50" fill="none" xmlns="http://www.w3.org/2000/svg" id="planning">
    <path d="M49.167 32.5H47.5V10.833a.833.833 0 0 0-.833-.833h-40V5.833A.833.833 0 0 0 5.833 5h-2.5A3.333 3.333 0 0 0 0 8.333v33.334A3.333 3.333 0 0 0 3.333 45h43.334c.46 0 .833-.373.833-.833v-3.334h1.667c.46 0 .833-.373.833-.833v-6.667a.833.833 0 0 0-.833-.833zM1.667 8.333c0-.92.746-1.666 1.666-1.666H5v31.666H3.333a3.31 3.31 0 0 0-1.666.448V8.333zm44.166 35h-42.5a1.667 1.667 0 1 1 0-3.333h2.5c.46 0 .834-.373.834-.833v-27.5h39.166V32.5h-15c-.008 0-.015.006-.024.006a.834.834 0 0 0-.348.083l-6.667 3.334a.833.833 0 0 0 0 1.491l6.667 3.334a.833.833 0 0 0 .372.085h15v2.5zm-2.5-9.166v5h-1.666v-5h1.666zm-11.666 1.666v-1.666H40v1.666h-8.333zM40 37.5v1.667h-8.333V37.5H40zm-10-2.818v3.97l-3.97-1.985L30 34.682zm18.333 4.485H45v-5h3.333v5z"
      fill="#F0CC8E"></path>
    <path d="M19.167 20.833H27.5c.46 0 .833-.373.833-.833v-5a.833.833 0 0 0-.833-.833h-8.333a.833.833 0 0 0-.834.833v1.667h-2.5V15a.833.833 0 0 0-.833-.833h-5a.833.833 0 0 0-.833.833v5c0 .46.373.833.833.833h1.667v2.5H10a.833.833 0 0 0-.833.834v5c0 .46.373.833.833.833h5c.46 0 .833-.373.833-.833V27.5h2.5v1.667c0 .46.373.833.834.833H27.5c.46 0 .833-.373.833-.833v-5a.833.833 0 0 0-.833-.834h-8.333a.833.833 0 0 0-.834.834v1.666h-2.5v-1.666a.833.833 0 0 0-.833-.834h-1.667v-2.5H15c.46 0 .833-.373.833-.833v-1.667h2.5V20c0 .46.373.833.834.833zm.833-5h6.667v3.334H20v-3.334zM20 25h6.667v3.333H20V25zm-5.833 0v3.333h-3.334V25h3.334zm0-5.833h-3.334v-3.334h3.334v3.334zm26.666 6.666v-.925a5.833 5.833 0 1 0-8.333 0v.925h-1.667V27.5H42.5v-1.667h-1.667zm-1.06-2.231a4.177 4.177 0 0 1-.33.33.833.833 0 0 0-.276.62v1.281H37.5v-2.155l2.256-2.256-1.178-1.178-1.911 1.911-1.911-1.91-1.178 1.177 2.255 2.256v2.155h-1.666v-1.28c0-.237-.1-.463-.277-.621a4.167 4.167 0 1 1 5.883-.33zm-18.94 12.231H9.167V37.5h11.666v-1.667zm0 3.334H9.167v1.666h11.666v-1.666zm0-6.667H12.5v1.667h8.333V32.5zm-10 0H9.167v1.667h1.666V32.5z"
      fill="#F0CC8E"></path>
  </symbol>
  <symbol viewBox="0 0 45 45" fill="none" xmlns="http://www.w3.org/2000/svg" id="window">
    <g clip-path="url(#clip0)">
      <path d="M.015 0v44.356l.354.22c.45.285.974.432 1.507.424h.016a3.033 3.033 0 0 0 2.181-.949 1.578 1.578 0 0 1 1.186-.565h.01c.456.006.886.209 1.183.555a3.033 3.033 0 0 0 2.173.93h.016a2.744 2.744 0 0 0 1.521-.436l.35-.22v-3.828h23.992v3.827l.35.221a2.75 2.75 0 0 0 1.52.436h.015a3.039 3.039 0 0 0 2.175-.93 1.585 1.585 0 0 1 1.182-.555h.01c.459.008.892.214 1.186.565.568.6 1.355.942 2.18.949h.017a2.738 2.738 0 0 0 1.507-.424l.355-.22V0H.015zm38.987 26.953v1.598a5.253 5.253 0 0 0-4.498 5.188v2.25h-9.747V4.499h3.749v11.246a11.252 11.252 0 0 0 10.496 11.208zm-32.989 0A11.251 11.251 0 0 0 16.51 15.745V4.499h3.748v22.746l-3.934-4.496-1.129.987 5.064 5.787v2.19l-3.18-3.71-1.138.976 4.318 5.037v1.973h-9.747v-2.25a5.252 5.252 0 0 0-4.499-5.188v-1.598zM21.758 4.5h1.5v31.49h-1.5V4.499zm-5.248-3h11.996V3H16.51V1.5zm-14.996 0H15.01v2.86l-.009.007c-.141.085-.274.172-.404.259a3.016 3.016 0 0 1-3.673 0 4.313 4.313 0 0 0-2.667-.876 4.308 4.308 0 0 0-2.664.876 2.836 2.836 0 0 1-1.834.623 2.842 2.842 0 0 1-1.835-.623 9.67 9.67 0 0 0-.402-.26l-.008-.004V1.5zm0 4.644l.016.008c.115.069.239.135.37.198l.088.04c.133.06.27.112.41.157.018.006.035.014.055.02.172.05.347.09.524.117l.136.02c.214.029.43.044.646.045.962.013 1.9-.295 2.666-.876a2.835 2.835 0 0 1 1.832-.624 2.836 2.836 0 0 1 1.835.624c.767.581 1.705.89 2.667.876a4.873 4.873 0 0 0 .784-.065c.177-.028.353-.067.526-.118l.057-.02a3.91 3.91 0 0 0 .41-.158l.085-.038c.133-.064.258-.13.374-.2l.015-.008v9.604a9.761 9.761 0 0 1-6.951 9.334c1.235-1.422 2.453-3.835 2.453-7.835h-1.5c0 6.302-3.274 7.986-3.891 8.248H1.514V6.143zm0 20.848h3v1.5h-3v-1.5zm2.048 3c.526.333 2.451 1.786 2.451 5.248h1.5a7.974 7.974 0 0 0-1.693-5.192 3.744 3.744 0 0 1 3.192 3.692v5.213a.938.938 0 0 1-.054.013c-.042.008-.082.017-.129.023l-.06.004c-.049.004-.098.008-.143.01a1.585 1.585 0 0 1-1.183-.556 3.065 3.065 0 0 0-2.19-.93 3.034 3.034 0 0 0-2.18.949 1.58 1.58 0 0 1-1.187.565h-.01a1.468 1.468 0 0 1-.362-.042v-8.997h2.048zm5.45 13.434a1.948 1.948 0 0 1-.386.047 1.585 1.585 0 0 1-1.183-.556 3.037 3.037 0 0 0-2.175-.93h-.015a3.033 3.033 0 0 0-2.18.949 1.58 1.58 0 0 1-1.187.565h-.008a1.462 1.462 0 0 1-.364-.042V40.51c.092.01.188.012.281.015.028 0 .053.005.081.005h.016a3.033 3.033 0 0 0 2.181-.949 1.578 1.578 0 0 1 1.186-.565h.01c.456.006.886.209 1.183.555.111.099.233.206.37.311a2.81 2.81 0 0 0 1.803.619h.016c.031 0 .06-.005.09-.006.094-.004.19-.005.281-.016v2.946zm1.5-5.937h23.992v1.5H10.512v-1.5zm32.99 5.97c-.104.027-.226.02-.373.042a1.58 1.58 0 0 1-1.186-.565 3.034 3.034 0 0 0-2.181-.948h-.015a3.037 3.037 0 0 0-2.174.929c-.297.347-.728.55-1.185.556a3.085 3.085 0 0 1-.384-.047V40.48c.12.014.242.021.364.022h.021l.02-.001a2.94 2.94 0 0 0 2.155-.929 1.584 1.584 0 0 1 1.182-.555h.01c.459.008.892.214 1.186.565.568.6 1.355.942 2.18.949h.021c.12.002.24-.004.358-.02v2.948zm0-4.473l-.033.007a1.535 1.535 0 0 1-.34.038 1.58 1.58 0 0 1-1.186-.565 3.035 3.035 0 0 0-2.18-.948h-.015l-.022.001a2.922 2.922 0 0 0-2.153.928c-.095.084-.182.16-.267.228a1.333 1.333 0 0 1-.918.328l-.071-.005a1.661 1.661 0 0 1-.151-.01c-.033-.005-.062-.012-.092-.018a.956.956 0 0 1-.07-.017V33.74a3.743 3.743 0 0 1 3.192-3.692 7.977 7.977 0 0 0-1.693 5.192h1.5c0-3.457 1.908-4.907 2.45-5.248H43.5v8.994zm0-10.494h-3v-1.5h3v1.5zm-3.607-3c-.58-.248-3.892-1.94-3.892-8.247h-1.499c0 4 1.218 6.413 2.453 7.835a9.761 9.761 0 0 1-6.952-9.334V6.141l.017.008c.115.07.24.136.373.2l.084.038c.134.06.271.113.411.158l.057.02a4.113 4.113 0 0 0 .66.137c.216.03.433.045.65.046.962.013 1.9-.295 2.666-.876a3.007 3.007 0 0 1 3.668 0 4.31 4.31 0 0 0 2.665.876 4.844 4.844 0 0 0 .783-.065c.177-.027.352-.067.524-.117.02-.006.036-.014.055-.02a3.88 3.88 0 0 0 .41-.157c.029-.014.06-.026.087-.04a4.55 4.55 0 0 0 .37-.198l.016-.008v19.349h-3.605zM43.502 1.5v2.86l-.007.006c-.141.085-.273.172-.403.259a3.008 3.008 0 0 1-3.668 0 4.495 4.495 0 0 0-5.331 0 3.016 3.016 0 0 1-3.674 0 11.05 11.05 0 0 0-.403-.26l-.01-.006V1.5h13.496z"
        fill="#F0CC8E"></path>
    </g>
    <defs>
      <clipPath id="clip0">
        <path fill="#fff" d="M0 0h45v45H0z"></path>
      </clipPath>
    </defs>
  </symbol>
</svg>