<svg width="50" height="50" viewBox="0 0 50 50" fill="none" xmlns="http://www.w3.org/2000/svg">
<path d="M49.1667 32.5H47.5V10.8333C47.5 10.3731 47.1269 10 46.6667 10H6.66667V5.83333C6.66667 5.37312 6.29354 5 5.83333 5H3.33333C1.4924 5 0 6.4924 0 8.33333V41.6667C0 43.5076 1.4924 45 3.33333 45H46.6667C47.1269 45 47.5 44.6269 47.5 44.1667V40.8333H49.1667C49.6269 40.8333 50 40.4602 50 40V33.3333C50 32.8731 49.6269 32.5 49.1667 32.5ZM1.66667 8.33333C1.66667 7.41281 2.41281 6.66667 3.33333 6.66667H5V38.3333H3.33333C2.74802 38.3324 2.17281 38.4869 1.66667 38.7808V8.33333ZM45.8333 43.3333H3.33333C2.41281 43.3333 1.66667 42.5872 1.66667 41.6667C1.66667 40.7461 2.41281 40 3.33333 40H5.83333C6.29354 40 6.66667 39.6269 6.66667 39.1667V11.6667H45.8333V32.5H30.8333C30.825 32.5 30.8175 32.5058 30.8092 32.5058C30.6884 32.508 30.5696 32.5365 30.4608 32.5892L23.7942 35.9225C23.3823 36.1278 23.2148 36.6281 23.4201 37.0401C23.5008 37.2022 23.6322 37.3334 23.7942 37.4142L30.4608 40.7475C30.5767 40.8046 30.7042 40.834 30.8333 40.8333H45.8333V43.3333ZM43.3333 34.1667V39.1667H41.6667V34.1667H43.3333ZM31.6667 35.8333V34.1667H40V35.8333H31.6667ZM40 37.5V39.1667H31.6667V37.5H40ZM30 34.6817V38.6517L26.03 36.6667L30 34.6817ZM48.3333 39.1667H45V34.1667H48.3333V39.1667Z" fill="#F0CC8E"/>
<path d="M19.1667 20.8333H27.5C27.9602 20.8333 28.3333 20.4602 28.3333 20V15C28.3333 14.5398 27.9602 14.1667 27.5 14.1667H19.1667C18.7065 14.1667 18.3333 14.5398 18.3333 15V16.6667H15.8333V15C15.8333 14.5398 15.4602 14.1667 15 14.1667H10C9.5398 14.1667 9.16667 14.5398 9.16667 15V20C9.16667 20.4602 9.5398 20.8333 10 20.8333H11.6667V23.3333H10C9.5398 23.3333 9.16667 23.7065 9.16667 24.1667V29.1667C9.16667 29.6269 9.5398 30 10 30H15C15.4602 30 15.8333 29.6269 15.8333 29.1667V27.5H18.3333V29.1667C18.3333 29.6269 18.7065 30 19.1667 30H27.5C27.9602 30 28.3333 29.6269 28.3333 29.1667V24.1667C28.3333 23.7065 27.9602 23.3333 27.5 23.3333H19.1667C18.7065 23.3333 18.3333 23.7065 18.3333 24.1667V25.8333H15.8333V24.1667C15.8333 23.7065 15.4602 23.3333 15 23.3333H13.3333V20.8333H15C15.4602 20.8333 15.8333 20.4602 15.8333 20V18.3333H18.3333V20C18.3333 20.4602 18.7065 20.8333 19.1667 20.8333ZM20 15.8333H26.6667V19.1667H20V15.8333ZM20 25H26.6667V28.3333H20V25ZM14.1667 25V28.3333H10.8333V25H14.1667ZM14.1667 19.1667H10.8333V15.8333H14.1667V19.1667Z" fill="#F0CC8E"/>
<path d="M40.8333 25.8333V24.9083C43.088 22.6072 43.0503 18.9139 40.7492 16.6592C38.448 14.4045 34.7547 14.4422 32.5 16.7433C30.2778 19.0114 30.2778 22.6402 32.5 24.9083V25.8333H30.8333V27.5H42.5V25.8333H40.8333ZM39.7733 23.6017C39.6696 23.7177 39.5594 23.8279 39.4433 23.9317C39.2673 24.0897 39.1667 24.3151 39.1667 24.5517V25.8333H37.5V23.6783L39.7558 21.4225L38.5775 20.2442L36.6667 22.155L34.7558 20.2442L33.5775 21.4225L35.8333 23.6783V25.8333H34.1667V24.5525C34.1669 24.3156 34.0663 24.0899 33.89 23.9317C32.1743 22.3981 32.0266 19.7641 33.56 18.0483C35.0936 16.3326 37.7276 16.1849 39.4433 17.7183C41.1591 19.2519 41.3068 21.8859 39.7733 23.6017Z" fill="#F0CC8E"/>
<path d="M20.8333 35.8333H9.16667V37.5H20.8333V35.8333Z" fill="#F0CC8E"/>
<path d="M20.8333 39.1667H9.16667V40.8333H20.8333V39.1667Z" fill="#F0CC8E"/>
<path d="M20.8333 32.5H12.5V34.1667H20.8333V32.5Z" fill="#F0CC8E"/>
<path d="M10.8333 32.5H9.16667V34.1667H10.8333V32.5Z" fill="#F0CC8E"/>
</svg>
