<svg width="45" height="45" viewBox="0 0 45 45" fill="none" xmlns="http://www.w3.org/2000/svg">
<g clip-path="url(#clip0)">
<path d="M0.0149078 0V44.356L0.369288 44.5764C0.81995 44.8609 1.34347 45.008 1.87613 44.9996H1.89224C2.71815 44.9938 3.50599 44.6511 4.07344 44.0514C4.36778 43.6996 4.8005 43.4935 5.25885 43.4862H5.26837C5.72452 43.4924 6.15542 43.6945 6.45159 44.0412C7.02086 44.6321 7.80504 44.9678 8.62546 44.9711H8.64083C9.18009 44.9784 9.7091 44.8268 10.1623 44.5354L10.5116 44.3143V40.4871H34.504V44.3143L34.8532 44.5354C35.3064 44.8265 35.8355 44.978 36.374 44.9711H36.3886C37.2098 44.9678 37.9943 44.6321 38.564 44.0412C38.8601 43.6949 39.291 43.4924 39.7464 43.4862H39.756C40.2147 43.4935 40.6478 43.6996 40.9421 44.0514C41.5096 44.6511 42.297 44.9934 43.1226 44.9996H43.1387C43.6717 45.0084 44.1956 44.8612 44.6463 44.5764L45.0006 44.356V0H0.0149078ZM39.0025 26.9534V28.551C36.4238 28.9248 34.5091 31.1334 34.504 33.7393V35.9886H24.7571V4.49857H28.5059V15.745C28.5154 21.6593 33.1018 26.5565 39.0025 26.9534ZM6.01301 26.9534C11.9141 26.5565 16.5005 21.6593 16.5097 15.745V4.49857H20.2585V27.2451L16.3244 22.7491L15.1954 23.7361L20.2585 29.5226V31.7133L17.0786 28.0033L15.9408 28.9786L20.2585 34.016V35.9886H10.5116V33.7393C10.5068 31.1334 8.59214 28.9248 6.01301 28.551V26.9534ZM21.758 4.49857H23.2575V35.9886H21.758V4.49857ZM16.5097 1.49952H28.5059V2.99905H16.5097V1.49952ZM1.51443 1.49952H15.0102V4.35946L15.001 4.36568C14.8597 4.45098 14.7272 4.53848 14.5972 4.62451C13.5143 5.45627 12.0071 5.45627 10.9238 4.62451C10.1576 4.04352 9.2189 3.73526 8.25717 3.74881C7.29653 3.73526 6.3586 4.04352 5.59273 4.62451C5.07397 5.04112 4.42489 5.26188 3.75933 5.24833C3.09377 5.26188 2.44431 5.04112 1.92446 4.62451C1.79523 4.53848 1.66307 4.45098 1.52212 4.36568L1.51443 4.36092V1.49952ZM1.51443 6.14307L1.53017 6.15149C1.64513 6.21958 1.76887 6.28584 1.90066 6.34918C1.92922 6.36272 1.95887 6.37517 1.98779 6.38835C2.12142 6.44876 2.25797 6.50147 2.39745 6.54614C2.41649 6.55236 2.43333 6.55968 2.4531 6.56554C2.6248 6.61606 2.80016 6.6556 2.97735 6.68306C3.02164 6.69038 3.06704 6.69624 3.1128 6.70246C3.32733 6.73175 3.54333 6.74712 3.75933 6.74786C4.72069 6.7614 5.65899 6.45315 6.4245 5.87216C6.94325 5.45554 7.59234 5.23479 8.25717 5.24833C8.92309 5.23442 9.57255 5.45518 10.092 5.87216C10.8586 6.45315 11.7973 6.7614 12.7587 6.74786C12.9761 6.74712 13.1932 6.73175 13.4081 6.70209C13.4535 6.69624 13.4989 6.69038 13.5425 6.68306C13.7204 6.65523 13.8961 6.61606 14.0689 6.56481C14.0887 6.55895 14.1063 6.55163 14.1257 6.54541C14.2659 6.50001 14.4028 6.44729 14.5368 6.38652C14.565 6.37371 14.5939 6.36199 14.6214 6.34881C14.7543 6.28511 14.8787 6.21812 14.9948 6.14929L15.0102 6.14087V15.745C15.0039 20.0484 12.1799 23.8401 8.05874 25.0786C9.29431 23.657 10.5116 21.2437 10.5116 17.2445H9.01205C9.01205 23.5457 5.73807 25.2301 5.12083 25.4919H1.51443V6.14307ZM1.51443 26.9914H4.51348V28.4909H1.51443V26.9914ZM3.562 29.9905C4.08845 30.3236 6.01301 31.7774 6.01301 35.2388H7.51253C7.57696 33.3629 6.97767 31.5244 5.82007 30.0469C7.65055 30.3196 9.00693 31.8887 9.01205 33.7393V38.9521C8.99485 38.9569 8.97618 38.9609 8.95751 38.9649C8.9165 38.9733 8.8755 38.9821 8.82901 38.9876C8.81034 38.9898 8.78837 38.9902 8.7686 38.992C8.72028 38.996 8.67085 39.0004 8.62619 39.0015C8.1704 38.9953 7.73951 38.7932 7.44297 38.4465C6.8682 37.8542 6.07854 37.5192 5.25299 37.5166C4.42745 37.5229 3.63998 37.8652 3.07253 38.4648C2.77783 38.8166 2.34474 39.0228 1.88565 39.0301C1.88236 39.0304 1.87979 39.0297 1.8765 39.0301C1.75459 39.0312 1.63305 39.0173 1.51443 38.9883V29.9905H3.562ZM9.01205 43.4254C8.88539 43.4536 8.75615 43.469 8.62619 43.4715C8.1704 43.4653 7.73951 43.2632 7.44297 42.9165C6.87369 42.3253 6.08879 41.99 5.26764 41.9867H5.25299C4.42745 41.9929 3.63998 42.3352 3.07253 42.9348C2.77783 43.2867 2.34474 43.4928 1.88565 43.5001H1.8776C1.75532 43.5016 1.63341 43.4873 1.51443 43.4584V40.5098C1.60559 40.5201 1.70187 40.5223 1.79523 40.5245C1.82305 40.5252 1.84831 40.5296 1.87613 40.5296H1.89224C2.71815 40.5237 3.50599 40.1811 4.07344 39.5814C4.36778 39.2296 4.8005 39.0235 5.25885 39.0162H5.26837C5.72452 39.0224 6.15542 39.2245 6.45159 39.5712C6.56325 39.6696 6.68479 39.7769 6.82244 39.8824C7.33314 40.2924 7.97088 40.5113 8.62546 40.501H8.64083C8.67195 40.501 8.70014 40.4959 8.73053 40.4952C8.82535 40.4912 8.92126 40.4897 9.01205 40.4791V43.4254ZM10.5116 37.4881H34.504V38.9876H10.5116V37.4881ZM43.5011 43.4584C43.3979 43.4847 43.2756 43.4774 43.1292 43.5001C42.6708 43.4928 42.2377 43.2863 41.9434 42.9348C41.3756 42.3352 40.5877 41.9925 39.7618 41.9867H39.7472C38.9268 41.99 38.1422 42.3249 37.5726 42.9158C37.2764 43.2632 36.8448 43.4657 36.3879 43.4715C36.259 43.4642 36.1305 43.4488 36.0035 43.4254V40.4791C36.1247 40.493 36.2462 40.5003 36.3678 40.5007L36.374 40.501H36.3886L36.4084 40.5C37.2248 40.5029 38.0057 40.1668 38.564 39.5712C38.8601 39.2248 39.291 39.0224 39.7464 39.0162H39.756C40.2147 39.0235 40.6478 39.2296 40.9421 39.5814C41.5096 40.1811 42.297 40.5234 43.1226 40.5296H43.1387L43.1427 40.5292C43.2624 40.5322 43.3825 40.5256 43.5011 40.5098V43.4584ZM43.5011 38.9847L43.4693 38.992C43.358 39.0173 43.2438 39.0301 43.1292 39.0301C42.6708 39.0228 42.2377 38.8163 41.9434 38.4648C41.3756 37.8652 40.5877 37.5225 39.7622 37.5166H39.7475L39.7263 37.5181C38.9103 37.5134 38.1298 37.8494 37.5729 38.4458C37.4781 38.5296 37.391 38.6061 37.3057 38.6739C37.052 38.895 36.7243 39.0121 36.3883 39.0015C36.3615 39.0008 36.3414 38.9982 36.3169 38.9971C36.2638 38.9949 36.2122 38.9924 36.166 38.9861C36.1327 38.9821 36.1038 38.9748 36.0738 38.9686C36.0496 38.9638 36.0262 38.9583 36.0039 38.9521V33.7393C36.009 31.8887 37.3654 30.3196 39.1958 30.0469C38.0382 31.5244 37.439 33.3629 37.503 35.2388H39.0025C39.0025 31.7821 40.911 30.332 41.4528 29.9905H43.5011V38.9847ZM43.5011 28.4909H40.5021V26.9914H43.5011V28.4909ZM39.8955 25.4919C39.3141 25.2433 36.0035 23.5516 36.0035 17.2445H34.504C34.504 21.2437 35.7216 23.657 36.9572 25.0786C32.8357 23.8401 30.012 20.0484 30.0054 15.745V6.14087L30.0215 6.14929C30.1372 6.21812 30.2617 6.28511 30.3946 6.34881C30.422 6.36199 30.4509 6.37371 30.4791 6.38652C30.6131 6.44729 30.7504 6.50001 30.8902 6.54541C30.9097 6.55163 30.9272 6.55895 30.947 6.56481C31.1198 6.6157 31.2955 6.65523 31.4734 6.68306C31.517 6.69038 31.5624 6.69624 31.6078 6.70209C31.8231 6.73175 32.0398 6.74712 32.2569 6.74786C33.2186 6.7614 34.1573 6.45315 34.9235 5.87216C36.0046 5.04039 37.5103 5.04039 38.5911 5.87216C39.3569 6.45315 40.2952 6.7614 41.2562 6.74786C41.4726 6.74712 41.6886 6.73211 41.9031 6.70246C41.9489 6.6966 41.9946 6.69038 42.0386 6.68342C42.2158 6.6556 42.3911 6.61643 42.5628 6.56554C42.5826 6.55968 42.5994 6.55236 42.6185 6.54614C42.7579 6.50147 42.8945 6.44876 43.0278 6.38872C43.057 6.37517 43.0871 6.36272 43.1153 6.34918C43.2474 6.28584 43.3708 6.21958 43.4857 6.15149L43.5011 6.14307V25.4919H39.8955ZM43.5011 1.49952V4.36092L43.4938 4.36568C43.3528 4.45098 43.2207 4.53848 43.0911 4.62451C42.01 5.45627 40.5043 5.45627 39.4228 4.62451C37.8376 3.45703 35.6773 3.45703 34.0917 4.62451C33.0088 5.45627 31.5016 5.45627 30.4184 4.62451C30.2888 4.53848 30.1562 4.45098 30.0149 4.36568L30.0054 4.35946V1.49952H43.5011Z" fill="#F0CC8E"/>
</g>
<defs>
<clipPath id="clip0">
<rect width="45" height="45" fill="white"/>
</clipPath>
</defs>
</svg>
