<svg width="0" height="0" class="hidden">
  <symbol xmlns="http://www.w3.org/2000/svg" viewBox="0 0 330 330" id="info">
    <path d="M165 0C74.019 0 0 74.02 0 165.001 0 255.982 74.019 330 165 330s165-74.018 165-164.999S255.981 0 165 0zm0 300c-74.44 0-135-60.56-135-134.999S90.56 30 165 30s135 60.562 135 135.001C300 239.44 239.439 300 165 300z"></path>
    <path d="M164.998 70c-11.026 0-19.996 8.976-19.996 20.009 0 11.023 8.97 19.991 19.996 19.991 11.026 0 19.996-8.968 19.996-19.991 0-11.033-8.97-20.009-19.996-20.009zm.002 70c-8.284 0-15 6.716-15 15v90c0 8.284 6.716 15 15 15 8.284 0 15-6.716 15-15v-90c0-8.284-6.716-15-15-15z"></path>
  </symbol>
  <symbol xmlns="http://www.w3.org/2000/svg" viewBox="0 0 512 512" id="gears">
    <path d="M262.785 317.207a8.084 8.084 0 0 0-10.769-3.837 128.725 128.725 0 0 1-20.448 7.648 8.08 8.08 0 0 0-5.748 6.2l-8.552 42.758a9.088 9.088 0 0 1-8.888 7.287h-23.329a9.088 9.088 0 0 1-8.888-7.287l-8.552-42.758a8.084 8.084 0 0 0-5.748-6.2 128.448 128.448 0 0 1-28.391-11.764 8.086 8.086 0 0 0-8.452.317l-36.286 24.19c-3.582 2.388-8.392 1.911-11.438-1.133L60.8 316.131c-3.045-3.045-3.52-7.855-1.133-11.438l24.19-36.286a8.081 8.081 0 0 0 .317-8.452 128.411 128.411 0 0 1-11.764-28.391 8.08 8.08 0 0 0-6.2-5.748l-42.758-8.552a9.088 9.088 0 0 1-7.287-8.888v-23.329a9.088 9.088 0 0 1 7.287-8.888l42.758-8.552a8.084 8.084 0 0 0 6.2-5.748 128.448 128.448 0 0 1 11.764-28.391 8.086 8.086 0 0 0-.317-8.452L59.669 88.734a9.09 9.09 0 0 1 1.133-11.438L77.298 60.8c3.045-3.045 7.856-3.52 11.438-1.133l36.286 24.19a8.083 8.083 0 0 0 8.452.317 128.448 128.448 0 0 1 28.391-11.764 8.08 8.08 0 0 0 5.748-6.2l8.552-42.758a9.088 9.088 0 0 1 8.888-7.287h23.329a9.088 9.088 0 0 1 8.888 7.287l8.552 42.758a8.084 8.084 0 0 0 5.748 6.2 128.448 128.448 0 0 1 28.391 11.764 8.086 8.086 0 0 0 8.452-.317l36.286-24.19c3.582-2.388 8.391-1.911 11.438 1.133l16.496 16.496c3.045 3.045 3.52 7.855 1.133 11.438l-24.19 36.286a8.081 8.081 0 0 0-.317 8.452 128.448 128.448 0 0 1 11.764 28.391 8.08 8.08 0 0 0 6.2 5.748l42.758 8.552a9.088 9.088 0 0 1 7.287 8.888v23.329a9.088 9.088 0 0 1-7.287 8.888l-42.758 8.552a8.084 8.084 0 0 0-6.2 5.75 128.672 128.672 0 0 1-7.88 20.934 8.083 8.083 0 0 0 3.791 10.785 8.082 8.082 0 0 0 10.785-3.791 144.997 144.997 0 0 0 7.442-18.777l37.991-7.598c11.749-2.352 20.279-12.758 20.279-24.744V185.05c0-11.986-8.53-22.391-20.284-24.743l-37.99-7.598a144.66 144.66 0 0 0-9.434-22.769l21.492-32.239c6.648-9.973 5.323-23.363-3.153-31.839l-16.496-16.496c-8.477-8.476-21.867-9.8-31.839-3.153l-32.239 21.492a144.755 144.755 0 0 0-22.769-9.434l-7.598-37.99C230.772 8.53 220.366 0 208.38 0h-23.329c-11.986 0-22.391 8.53-24.743 20.284l-7.598 37.99a144.66 144.66 0 0 0-22.769 9.434L97.704 46.216c-9.972-6.648-23.363-5.324-31.839 3.153L49.369 65.865c-8.475 8.476-9.801 21.865-3.153 31.839l21.492 32.239a144.716 144.716 0 0 0-9.434 22.769l-37.991 7.598C8.53 162.66 0 173.066 0 185.052v23.329c0 11.986 8.53 22.391 20.284 24.743l37.99 7.598a144.644 144.644 0 0 0 9.434 22.769L46.216 295.73c-6.648 9.973-5.323 23.363 3.153 31.839l16.496 16.496c8.476 8.476 21.866 9.8 31.839 3.153l32.239-21.492a144.716 144.716 0 0 0 22.769 9.434l7.598 37.992c2.35 11.75 12.756 20.281 24.742 20.281h23.329c11.986 0 22.391-8.53 24.743-20.284l7.598-37.99a144.831 144.831 0 0 0 18.228-7.18 8.085 8.085 0 0 0 3.835-10.772z"></path>
    <path d="M266.739 241.636a8.083 8.083 0 0 0 10.882-3.504c6.52-12.715 9.967-27.036 9.967-41.415 0-50.107-40.765-90.873-90.873-90.873-23.838 0-46.364 9.162-63.43 25.801a8.084 8.084 0 0 0 11.285 11.577c14.029-13.676 32.547-21.209 52.143-21.209 41.192 0 74.705 33.512 74.705 74.705 0 11.994-2.754 23.446-8.185 34.038a8.084 8.084 0 0 0 3.506 10.88zm-145.696-79.511a8.083 8.083 0 0 0-10.274 5.014 90.728 90.728 0 0 0-4.924 29.577c0 50.108 40.766 90.873 90.873 90.873 19.271 0 37.683-5.956 53.247-17.227a8.086 8.086 0 0 0-9.483-13.097c-12.788 9.259-27.921 14.154-43.765 14.154-41.193 0-74.705-33.513-74.705-74.705 0-8.334 1.36-16.517 4.044-24.318a8.08 8.08 0 0 0-5.013-10.271zm375.399 191.191l-23.377-4.675a97.791 97.791 0 0 0-5.127-12.373l13.226-19.838c5.099-7.65 4.083-17.92-2.418-24.42l-10.84-10.84c-6.501-6.5-16.771-7.517-24.42-2.418l-19.838 13.226a97.639 97.639 0 0 0-12.373-5.126l-4.675-23.377c-1.803-9.015-9.784-15.558-18.977-15.558h-15.331c-9.192 0-17.174 6.543-18.977 15.558l-4.675 23.377a97.933 97.933 0 0 0-12.373 5.126l-19.838-13.226c-7.65-5.098-17.92-4.083-24.42 2.418l-10.84 10.84c-6.501 6.501-7.517 16.771-2.418 24.42l13.226 19.838a97.706 97.706 0 0 0-6.605 17.177 8.086 8.086 0 0 0 15.571 4.357 81.578 81.578 0 0 1 7.476-18.043 8.086 8.086 0 0 0-.317-8.452l-15.897-23.845a3.194 3.194 0 0 1 .398-4.019l10.84-10.84a3.198 3.198 0 0 1 4.019-.398l23.845 15.897a8.083 8.083 0 0 0 8.452.317 81.598 81.598 0 0 1 18.043-7.476 8.08 8.08 0 0 0 5.748-6.2l5.619-28.097a3.193 3.193 0 0 1 3.123-2.56h15.331a3.195 3.195 0 0 1 3.123 2.56l5.619 28.099a8.084 8.084 0 0 0 5.748 6.2 81.578 81.578 0 0 1 18.043 7.476 8.086 8.086 0 0 0 8.452-.317l23.845-15.897a3.193 3.193 0 0 1 4.019.398l10.84 10.84a3.196 3.196 0 0 1 .398 4.019l-15.897 23.845a8.081 8.081 0 0 0-.317 8.452 81.598 81.598 0 0 1 7.476 18.043 8.08 8.08 0 0 0 6.2 5.748l28.097 5.619a3.193 3.193 0 0 1 2.56 3.123v15.331a3.195 3.195 0 0 1-2.56 3.123l-28.099 5.619a8.084 8.084 0 0 0-6.2 5.748 81.578 81.578 0 0 1-7.476 18.043 8.086 8.086 0 0 0 .317 8.452l15.897 23.845a3.194 3.194 0 0 1-.398 4.019l-10.84 10.84a3.195 3.195 0 0 1-4.019.398l-23.845-15.897a8.086 8.086 0 0 0-8.452-.317 81.598 81.598 0 0 1-18.043 7.476 8.08 8.08 0 0 0-5.748 6.2l-5.619 28.097a3.193 3.193 0 0 1-3.123 2.56H372.29a3.195 3.195 0 0 1-3.123-2.56l-5.619-28.099a8.084 8.084 0 0 0-5.748-6.2 81.578 81.578 0 0 1-18.043-7.476 8.085 8.085 0 0 0-8.452.317L307.46 467.71a3.193 3.193 0 0 1-4.019-.398l-10.84-10.84a3.196 3.196 0 0 1-.398-4.019l15.897-23.845a8.081 8.081 0 0 0 .317-8.452 81.598 81.598 0 0 1-7.476-18.043 8.08 8.08 0 0 0-6.2-5.748l-28.097-5.619a3.193 3.193 0 0 1-2.56-3.123v-15.331a3.195 3.195 0 0 1 2.56-3.123l1.72-.344a8.083 8.083 0 0 0 6.341-9.513c-.876-4.378-5.13-7.213-9.514-6.341l-1.72.344c-9.013 1.804-15.556 9.785-15.556 18.978v15.331c0 9.192 6.543 17.174 15.558 18.977l23.377 4.675a97.933 97.933 0 0 0 5.126 12.373l-13.226 19.838c-5.1 7.65-4.083 17.92 2.418 24.42l10.84 10.84c6.501 6.501 16.771 7.517 24.42 2.418l19.838-13.226a97.639 97.639 0 0 0 12.373 5.126l4.675 23.377C355.119 505.457 363.1 512 372.293 512h15.331c9.192 0 17.174-6.543 18.977-15.558l4.675-23.377a97.791 97.791 0 0 0 12.373-5.127l19.838 13.226c7.65 5.099 17.92 4.083 24.42-2.418l10.84-10.84c6.501-6.501 7.517-16.771 2.418-24.42l-13.226-19.838a97.639 97.639 0 0 0 5.126-12.373l23.377-4.675c9.014-1.803 15.557-9.784 15.557-18.977v-15.331c.001-9.192-6.542-17.173-15.557-18.976z"></path>
    <path d="M379.958 350.855c16.048 0 29.103 13.055 29.103 29.103a8.084 8.084 0 0 0 16.168 0c0-24.963-20.309-45.272-45.272-45.272s-45.272 20.309-45.272 45.272 20.309 45.272 45.272 45.272c10.111 0 19.675-3.261 27.659-9.429a8.086 8.086 0 0 0-9.886-12.796c-5.128 3.961-11.274 6.056-17.773 6.056-16.048 0-29.103-13.055-29.103-29.103.001-16.049 13.056-29.103 29.104-29.103zM245.969 196.716c0-27.158-22.096-49.253-49.253-49.253-27.158 0-49.253 22.096-49.253 49.253 0 27.158 22.095 49.253 49.253 49.253s49.253-22.096 49.253-49.253zm-82.338 0c0-18.242 14.843-33.085 33.085-33.085s33.085 14.843 33.085 33.085-14.842 33.085-33.085 33.085c-18.244 0-33.085-14.843-33.085-33.085z"></path>
  </symbol>
  <symbol xmlns="http://www.w3.org/2000/svg" viewBox="0 0 480 480" id="information">
    <path d="M-32.039 559.294H5.484V521.77c0-5.18 4.2-9.38 9.38-9.38H80.53v-28.142H33.626a9.38 9.38 0 0 1-9.38-9.38v-56.285c0-5.18 4.2-9.38 9.38-9.38h46.903V371.68c0-5.18 4.2-9.38 9.38-9.38h140.71v-28.142h-46.903c-5.18 0-9.38-4.2-9.38-9.381v-56.284c0-5.18 4.2-9.38 9.38-9.38h112.568c5.18 0 9.38 4.2 9.38 9.38v56.284c0 5.18-4.2 9.38-9.38 9.38H249.38V362.3h140.71c5.18 0 9.38 4.2 9.38 9.381v37.523h46.904c5.18 0 9.38 4.2 9.38 9.38v56.284c0 5.18-4.2 9.38-9.38 9.38H399.47v28.143h65.664c5.18 0 9.38 4.2 9.38 9.38v37.523h37.523c5.18 0 9.381 4.2 9.381 9.38v56.284c0 5.18-4.2 9.381-9.38 9.381h-93.807a9.38 9.38 0 0 1-9.38-9.38v-56.284c0-5.18 4.2-9.381 9.38-9.381h37.523v-28.142h-131.33v28.142h37.523c5.18 0 9.38 4.2 9.38 9.38v56.284c0 5.18-4.2 9.381-9.38 9.381h-93.806a9.38 9.38 0 0 1-9.38-9.38v-56.284c0-5.18 4.2-9.381 9.38-9.381h37.522V521.77c0-5.18 4.2-9.38 9.38-9.38h65.665v-28.142h-46.903a9.38 9.38 0 0 1-9.38-9.38v-56.285c0-5.18 4.2-9.38 9.38-9.38h46.903v-28.142H99.29v28.142h46.903c5.18 0 9.381 4.2 9.381 9.38v56.284c0 5.18-4.2 9.38-9.38 9.38H99.29v28.143h65.665c5.18 0 9.38 4.2 9.38 9.38v37.523h37.523c5.18 0 9.38 4.2 9.38 9.38v56.284c0 5.18-4.2 9.381-9.38 9.381H118.05a9.38 9.38 0 0 1-9.38-9.38v-56.284c0-5.18 4.2-9.381 9.38-9.381h37.523v-28.142H24.245v28.142h37.523c5.18 0 9.38 4.2 9.38 9.38v56.284c0 5.18-4.2 9.381-9.38 9.381H-32.04a9.38 9.38 0 0 1-9.38-9.38v-56.284c0-5.18 4.2-9.381 9.38-9.381zm459.652 18.761v37.523h75.045v-37.523h-75.045zm-150.09 0v37.523h75.044v-37.523h-75.045zm65.664-150.09v37.522h93.806v-37.522h-93.806zm-56.284-112.568v-37.522h-93.806v37.522h93.806zm-159.47 262.658v37.523h75.044v-37.523h-75.045zm9.38-112.568v-37.522H43.006v37.522h93.807zm-159.471 150.09h75.045v-37.522h-75.045v37.523z"
      data-original="#000000"></path>
  </symbol>
  <symbol viewBox="0 -80 480 480" xmlns="http://www.w3.org/2000/svg" id="network">
    <path d="M472 256h-32v-32a8 8 0 0 0-8-8h-56v-24h32a8 8 0 0 0 8-8v-48a8 8 0 0 0-8-8h-32V96a8 8 0 0 0-8-8H248V64h48a8 8 0 0 0 8-8V8a8 8 0 0 0-8-8H184a8 8 0 0 0-8 8v48a8 8 0 0 0 8 8h48v24H104a8 8 0 0 0-8 8v32H64a8 8 0 0 0-8 8v48a8 8 0 0 0 8 8h32v24H40a8 8 0 0 0-8 8v32H8a8 8 0 0 0-8 8v48a8 8 0 0 0 8 8h80a8 8 0 0 0 8-8v-48a8 8 0 0 0-8-8H48v-24h112v24h-24a8 8 0 0 0-8 8v48a8 8 0 0 0 8 8h80a8 8 0 0 0 8-8v-48a8 8 0 0 0-8-8h-40v-32a8 8 0 0 0-8-8h-56v-24h32a8 8 0 0 0 8-8v-48a8 8 0 0 0-8-8h-32v-24h248v24h-32a8 8 0 0 0-8 8v48a8 8 0 0 0 8 8h32v24h-56a8 8 0 0 0-8 8v32h-32a8 8 0 0 0-8 8v48a8 8 0 0 0 8 8h80a8 8 0 0 0 8-8v-48a8 8 0 0 0-8-8h-32v-24h112v24h-32a8 8 0 0 0-8 8v48a8 8 0 0 0 8 8h80a8 8 0 0 0 8-8v-48a8 8 0 0 0-8-8zM192 16h96v32h-96zM80 304H16v-32h64zm128 0h-64v-32h64zm-72-128H72v-32h64zm200-32h64v32h-64zm0 160h-64v-32h64zm128 0h-64v-32h64zm0 0"></path>
  </symbol>
  <symbol xmlns="http://www.w3.org/2000/svg" viewBox="0 0 32 32" id="news">
    <g fill="#010002">
      <path d="M29 0H7a3 3 0 0 0-3 3v2H3a3 3 0 0 0-3 3v20a4 4 0 0 0 4 4h24a4 4 0 0 0 4-4V3a3 3 0 0 0-3-3zm1 28c0 1.102-.898 2-2 2H4c-1.103 0-2-.898-2-2V8a1 1 0 0 1 1-1h1v20a1 1 0 1 0 2 0V3a1 1 0 0 1 1-1h22c.551 0 1 .448 1 1v25z"></path>
      <path d="M19.498 13.005h8a.5.5 0 1 0 0-1h-8a.5.5 0 0 0 0 1zm0-3h8a.5.5 0 1 0 0-1h-8a.5.5 0 0 0 0 1zm0-3h8a.5.5 0 1 0 0-1h-8a.5.5 0 0 0 0 1zM16.5 27.004h-8a.5.5 0 0 0 0 1h8a.5.5 0 0 0 0-1zm0-3h-8a.5.5 0 0 0 0 1h8a.5.5 0 0 0 0-1zm0-3h-8a.5.5 0 0 0 0 1h8a.5.5 0 0 0 0-1zm11 6h-8a.5.5 0 0 0 0 1h8a.5.5 0 0 0 0-1zm0-3h-8a.5.5 0 0 0 0 1h8a.5.5 0 0 0 0-1zm0-3h-8a.5.5 0 0 0 0 1h8a.5.5 0 0 0 0-1zm0-6h-19a.5.5 0 0 0 0 1h19a.5.5 0 0 0 0-1zm0 3h-19a.5.5 0 0 0 0 1h19a.5.5 0 0 0 0-1zM9 13h7a1 1 0 0 0 1-1V5.004a1 1 0 0 0-1-1H9a1 1 0 0 0-1 1V12a1 1 0 0 0 1 1zm1-7h5v5h-5V6z"></path>
    </g>
  </symbol>
  <symbol xmlns="http://www.w3.org/2000/svg" viewBox="0 0 512 512" id="playoff">
    <path d="M449.393 0H62.607C45.894 0 32.298 13.597 32.298 30.309V481.69c0 16.713 13.597 30.309 30.309 30.309h386.786c16.713 0 30.309-13.597 30.309-30.309V30.309C479.702 13.597 466.106 0 449.393 0zM56.545 30.309a6.069 6.069 0 0 1 6.062-6.062h386.786a6.069 6.069 0 0 1 6.062 6.062v105.1H56.545v-105.1zM173.35 487.751H62.607a6.068 6.068 0 0 1-6.062-6.061V335.796H173.35v151.955zm0-176.202H56.545V159.657H173.35v151.892zm141.052 176.204H197.597V335.796h116.805v151.957zm0-176.204H197.597V159.657h116.805v151.892zM455.455 481.69a6.071 6.071 0 0 1-6.062 6.063H338.649V159.657h116.806V481.69z"></path>
    <path d="M144.921 223.48h-17.85v-17.85c0-6.696-5.428-12.124-12.124-12.124s-12.124 5.428-12.124 12.124v17.85h-17.85c-6.696 0-12.124 5.429-12.124 12.124s5.428 12.124 12.124 12.124h17.85v17.851c0 6.696 5.428 12.124 12.124 12.124s12.124-5.428 12.124-12.124v-17.851h17.85c6.696 0 12.124-5.429 12.124-12.124s-5.428-12.124-12.124-12.124zm141.652 0h-61.147c-6.696 0-12.124 5.429-12.124 12.124s5.428 12.124 12.124 12.124h61.147c6.695 0 12.124-5.429 12.124-12.124s-5.429-12.124-12.124-12.124zm-154.48 188.326l14.635-14.635c4.734-4.734 4.734-12.411 0-17.147-4.734-4.733-12.411-4.733-17.147 0l-14.635 14.635-14.635-14.635c-4.734-4.733-12.411-4.733-17.147 0-4.734 4.734-4.734 12.411 0 17.147L97.8 411.806l-14.635 14.635c-4.734 4.734-4.734 12.411 0 17.145a12.088 12.088 0 0 0 8.573 3.551c3.102 0 6.206-1.184 8.573-3.551l14.635-14.635 14.635 14.635c2.368 2.367 5.47 3.551 8.573 3.551s6.206-1.184 8.573-3.551c4.734-4.734 4.734-12.411 0-17.145l-14.634-14.635zm155.683-31.781c-4.736-4.733-12.41-4.733-17.147 0l-46.416 46.416c-4.733 4.734-4.733 12.411.001 17.147 2.368 2.367 5.47 3.551 8.573 3.551s6.206-1.185 8.573-3.551l46.416-46.416c4.734-4.735 4.734-12.412 0-17.147z"></path>
    <circle cx="232.787" cy="388.601" r="10.342"></circle>
    <circle cx="279.209" cy="435.011" r="10.34"></circle>
    <path d="M427.684 290.423h-61.971c-6.695 0-12.124 5.428-12.124 12.124 0 6.695 5.429 12.124 12.124 12.124h61.971c6.695 0 12.124-5.429 12.124-12.124 0-6.696-5.428-12.124-12.124-12.124zm0 42.316h-61.971c-6.695 0-12.124 5.429-12.124 12.124s5.429 12.124 12.124 12.124h61.971c6.695 0 12.124-5.429 12.124-12.124s-5.428-12.124-12.124-12.124z"></path>
  </symbol>
  <symbol xmlns="http://www.w3.org/2000/svg" viewBox="0 0 483.688 483.688" id="shopping-cart">
    <path d="M473.6 92.43c-8.7-10.6-21.9-16.5-35.6-16.5H140.7c-8.5 0-16.6 2.4-23.6 6.7l-15.2-53.1c-2.5-8.7-10.4-14.7-19.4-14.7H15.3c-8.4 0-15.3 6.8-15.3 15.3v1.6c0 8.4 6.8 15.3 15.3 15.3h57.8l29.5 104.3 40.6 143.9c-23.1 5.8-40.2 26.7-40.2 51.5 0 28.1 21.9 51.2 49.6 53-2.3 6.6-3.4 13.9-2.8 21.4 2 25.4 22.7 45.9 48.1 47.6 30.3 2.1 55.6-22 55.6-51.8 0-6-1-11.7-2.9-17.1h60.8c-2.5 7.1-3.5 15-2.6 23.1 2.8 24.6 23.1 44 47.9 45.8 30.3 2.1 55.7-21.9 55.7-51.8 0-28.9-24-52-52.8-52H156.5c-9.9 0-18.3-7.7-18.7-17.5-.4-10.4 7.9-18.9 18.2-18.9h242.3c20.6 0 38.6-14.1 43.6-34.1l40.4-162.6c3.5-14 .3-28.3-8.7-39.4zm-113.1 307.3c9.4 0 17.1 7.7 17.1 17.1s-7.7 17.1-17.1 17.1-17.1-7.7-17.1-17.1 7.6-17.1 17.1-17.1zm-158.9 0c9.4 0 17.1 7.7 17.1 17.1s-7.7 17.1-17.1 17.1c-9.4 0-17.1-7.7-17.1-17.1 0-9.4 7.6-17.1 17.1-17.1zm-62.8-248.6l-7.8-27.5c-1.2-4.2.5-7.3 1.7-8.8 1.1-1.5 3.7-4 8-4h32.6l8.9 40.4h-43.4v-.1zm9.8 34.8h41.2l8.2 37.4h-38.9l-10.5-37.4zm37.9 107.6c-4.5 0-8.5-3-9.7-7.4l-7.9-28h36.7l7.8 35.3h-26.9v.1zm87.1 0H249l-7.8-35.3h32.3v35.3h.1zm0-70.2h-40l-8.2-37.4h48.2v37.4zm0-72.2h-55.8l-8.9-40.4h64.7v40.4zm62.4 142.4h-27.5v-35.3h34.9l-7.4 35.3zm14.8-70.2h-42.3v-37.4h50.2l-7.9 37.4zm-42.3-72.2v-40.4h66l-8.5 40.4h-57.5zm99.7 134.8c-1.1 4.5-5.1 7.7-9.8 7.7h-26.8l7.5-35.3h36l-6.9 27.6zm15.5-62.6h-37.3l7.9-37.4H433l-9.3 37.4zm24.8-100.1l-6.9 27.8h-40l8.5-40.4h28.6c4.3 0 6.8 2.4 7.9 3.9 1.2 1.5 3 4.6 1.9 8.7z"></path>
  </symbol>
   <symbol xmlns="http://www.w3.org/2000/svg" viewBox="0 0 470 470" id="newspaper">
    <path d="M430.809 30h-40.491c-4.143 0-7.5 3.358-7.5 7.5s3.357 7.5 7.5 7.5h13.952a30.81 30.81 0 0 0-4.457 15.997v354.509c0 4.142 3.357 7.5 7.5 7.5s7.5-3.358 7.5-7.5V60.997c0-8.821 7.176-15.997 15.996-15.997 8.821 0 15.998 7.176 15.998 15.997v354.509c0 21.777-17.717 39.494-39.494 39.494s-39.494-17.717-39.494-39.494V7.5a7.5 7.5 0 0 0-7.5-7.5H15.693a7.5 7.5 0 0 0-7.5 7.5v408.006C8.193 445.554 32.64 470 62.688 470h344.625c30.048 0 54.494-24.446 54.494-54.494V60.997c0-17.092-13.906-30.997-30.998-30.997zM62.688 455c-21.777 0-39.494-17.717-39.494-39.494V15h329.625v400.506c0 15.526 6.529 29.559 16.983 39.494H62.688z"></path>
    <path d="M320.318 40H55.693a7.5 7.5 0 0 0-7.5 7.5v75a7.5 7.5 0 0 0 7.5 7.5h264.625a7.5 7.5 0 0 0 7.5-7.5v-75a7.5 7.5 0 0 0-7.5-7.5zm-7.5 75H63.193V55h249.625v60zm7.5 30H55.693c-4.143 0-7.5 3.358-7.5 7.5s3.357 7.5 7.5 7.5h264.625c4.143 0 7.5-3.358 7.5-7.5s-3.357-7.5-7.5-7.5zm0 60H203.006c-4.143 0-7.5 3.358-7.5 7.5s3.357 7.5 7.5 7.5h117.313a7.5 7.5 0 1 0-.001-15zm-147.312 0H55.693c-4.143 0-7.5 3.358-7.5 7.5s3.357 7.5 7.5 7.5h117.313a7.5 7.5 0 0 0 0-15zm147.312 30H203.006c-4.143 0-7.5 3.358-7.5 7.5s3.357 7.5 7.5 7.5h117.313a7.5 7.5 0 1 0-.001-15zm-147.312 0H55.693c-4.143 0-7.5 3.358-7.5 7.5s3.357 7.5 7.5 7.5h117.313a7.5 7.5 0 0 0 0-15zm147.312 30H203.006c-4.143 0-7.5 3.358-7.5 7.5s3.357 7.5 7.5 7.5h117.313a7.5 7.5 0 1 0-.001-15zm0 30H203.006c-4.143 0-7.5 3.358-7.5 7.5s3.357 7.5 7.5 7.5h117.313a7.5 7.5 0 1 0-.001-15zm-117.312 45h77.313c4.143 0 7.5-3.358 7.5-7.5s-3.357-7.5-7.5-7.5h-77.313c-4.143 0-7.5 3.358-7.5 7.5s3.357 7.5 7.5 7.5zm77.312 75h-77.313c-4.143 0-7.5 3.358-7.5 7.5s3.357 7.5 7.5 7.5h77.313c4.143 0 7.5-3.358 7.5-7.5s-3.357-7.5-7.5-7.5zm40-30H203.006c-4.143 0-7.5 3.358-7.5 7.5s3.357 7.5 7.5 7.5h117.313a7.5 7.5 0 1 0-.001-15zM173.006 265H55.693a7.5 7.5 0 0 0-7.5 7.5v150a7.5 7.5 0 0 0 7.5 7.5h117.313a7.5 7.5 0 0 0 7.5-7.5v-150a7.5 7.5 0 0 0-7.5-7.5zm-7.5 150H63.193V280h102.313v135z"></path>
  </symbol>
</svg>