<svg width="0" height="0" class="hidden">
  <symbol xmlns="http://www.w3.org/2000/svg" viewBox="0 0 510 510" id="favorite">
    <path d="M255 489.6l-35.7-35.7C86.7 336.6 0 257.55 0 160.65 0 81.6 61.2 20.4 140.25 20.4c43.35 0 86.7 20.4 114.75 53.55C283.05 40.8 326.4 20.4 369.75 20.4 448.8 20.4 510 81.6 510 160.65c0 96.9-86.7 175.95-219.3 293.25L255 489.6z"></path>
  </symbol>
  <symbol xmlns="http://www.w3.org/2000/svg" viewBox="0 0 56.966 56.966" id="search">
    <path d="M55.146 51.887L41.588 37.786A22.926 22.926 0 0 0 46.984 23c0-12.682-10.318-23-23-23s-23 10.318-23 23 10.318 23 23 23c4.761 0 9.298-1.436 13.177-4.162l13.661 14.208c.571.593 1.339.92 2.162.92.779 0 1.518-.297 2.079-.837a3.004 3.004 0 0 0 .083-4.242zM23.984 6c9.374 0 17 7.626 17 17s-7.626 17-17 17-17-7.626-17-17 7.626-17 17-17z"></path>
  </symbol>
  <symbol xmlns="http://www.w3.org/2000/svg" viewBox="0 0 510 510" id="shopping-cart">
    <path d="M153 408c-28.05 0-51 22.95-51 51s22.95 51 51 51 51-22.95 51-51-22.95-51-51-51zM0 0v51h51l91.8 193.8-35.7 61.2c-2.55 7.65-5.1 17.85-5.1 25.5 0 28.05 22.95 51 51 51h306v-51H163.2c-2.55 0-5.1-2.55-5.1-5.1v-2.551l22.95-43.35h188.7c20.4 0 35.7-10.2 43.35-25.5L504.9 89.25c5.1-5.1 5.1-7.65 5.1-12.75 0-15.3-10.2-25.5-25.5-25.5H107.1L84.15 0H0zm408 408c-28.05 0-51 22.95-51 51s22.95 51 51 51 51-22.95 51-51-22.95-51-51-51z"></path>
  </symbol>
  <symbol xmlns="http://www.w3.org/2000/svg" viewBox="0 0 258.75 258.75" id="user">
    <circle cx="129.375" cy="60" r="60"></circle>
    <path d="M129.375 150c-60.061 0-108.75 48.689-108.75 108.75h217.5c0-60.061-48.689-108.75-108.75-108.75z"></path>
  </symbol>
  <symbol xmlns="http://www.w3.org/2000/svg" viewBox="0 0 460 460" id="weight-balance">
    <path d="M279.27 392.188h-30.51V112.579h128.58l-54.464 86.423c-2.762 4.382-1.448 10.176 2.935 12.937a9.324 9.324 0 0 0 4.992 1.445 9.376 9.376 0 0 0 7.944-4.378l47.235-74.954 47.233 74.954c2.763 4.382 8.557 5.696 12.938 2.933 4.382-2.761 5.694-8.555 2.933-12.937l-54.462-86.423h.688c8.029 0 14.539-6.51 14.539-14.539 0-8.028-6.509-14.538-14.539-14.538H288.356c-6.04-8.786-14.954-15.438-25.39-18.596C261.475 48.005 247.289 34.75 230 34.75c-17.29 0-31.475 13.255-32.967 30.156-10.436 3.158-19.35 9.81-25.389 18.596H64.688c-8.03 0-14.54 6.51-14.54 14.538 0 8.029 6.509 14.539 14.54 14.539h.688l-54.464 86.423c-2.762 4.382-1.448 10.176 2.934 12.937a9.379 9.379 0 0 0 12.937-2.933l47.235-74.954 47.234 74.954c2.762 4.382 8.555 5.696 12.937 2.933 4.383-2.761 5.696-8.555 2.935-12.937l-54.463-86.423h128.58v279.607h-30.509c-18.259 0-33.062 14.804-33.062 33.063h164.661c0-18.259-14.803-33.061-33.061-33.061z"></path>
    <path d="M143.035 223.359H5a5 5 0 0 0-5 5c0 40.813 33.204 74.017 74.018 74.017 40.813 0 74.018-33.204 74.018-74.017a5.002 5.002 0 0 0-5.001-5zm311.965 0H316.965a5 5 0 0 0-5 5c0 40.813 33.204 74.017 74.019 74.017 40.813 0 74.017-33.204 74.017-74.017a5.002 5.002 0 0 0-5.001-5z"></path>
  </symbol>
</svg>